<svg width="642" height="246" viewBox="0 0 642 246" fill="none" xmlns="http://www.w3.org/2000/svg">
<g clip-path="url(#clip0_4601_5167)">
<rect width="642" height="246" rx="10" fill="black"/>
<path d="M506.983 204.173C532.066 227.015 567.797 222.002 593.328 195.272C618.858 168.542 613.739 126.721 584.131 109.436C554.523 92.1515 521.875 92.766 497.786 118.337C473.698 143.908 481.901 181.331 506.983 204.173Z" fill="#181818"/>
<path d="M650.442 84.0448C663.976 91.4217 680.727 92.0772 690.65 79.8926C700.572 67.708 698.658 49.8118 686.374 39.9203C674.091 30.0289 657.007 34.7176 646.167 44.0725C635.326 53.4274 636.908 76.6678 650.442 84.0448Z" fill="#FFD900"/>
<path d="M700.441 166.957C717.279 180.517 717.292 202.768 706.245 221.82C695.199 240.872 676.45 258.409 663.37 274.471C650.29 290.533 626.115 294.66 608.198 280.232C590.281 265.804 587.489 240.014 602.393 225.369C617.298 210.724 629.324 188.641 645.269 172.718C661.214 156.796 683.603 153.398 700.441 166.957Z" fill="#181818"/>
<path d="M474.982 118.603C488.408 129.415 506.64 126.969 517.032 114.208C527.423 101.448 525.746 80.3571 512.612 72.3932C499.478 64.4292 480.134 61.3978 470.562 76.7881C460.991 92.1784 461.555 107.791 474.982 118.603Z" fill="#0F0F0F"/>
<path d="M516.182 216.131C520.441 219.56 526.225 218.782 529.522 214.733C532.82 210.684 532.289 203.993 528.123 201.467C523.957 198.941 517.821 197.981 514.783 202.865C511.746 207.748 511.924 212.701 516.182 216.131Z" fill="#0F0F0F"/>
<path d="M458.86 78.8581C461.656 81.1101 465.455 80.5996 467.62 77.9404C469.786 75.2812 469.437 70.8871 466.701 69.2284C463.966 67.5698 459.936 66.9391 457.941 70.1461C455.946 73.3532 456.063 76.6061 458.86 78.8581Z" fill="#FFD900"/>
<path d="M535.222 203.521C533.607 204.122 533.013 205.842 533.639 207.604C534.266 209.366 536.283 210.098 537.75 209.166C539.216 208.234 539.94 206.754 539.333 205.083C538.725 203.413 536.837 202.92 535.222 203.521Z" fill="#FFD900"/>
<path d="M524.481 118.969C527.277 121.221 531.076 120.711 533.241 118.052C535.407 115.393 535.058 110.998 532.322 109.34C529.587 107.681 525.557 107.05 523.562 110.257C521.567 113.465 521.684 116.717 524.481 118.969Z" fill="#FFD900"/>
<path d="M536.982 119.577C538.253 120.6 539.98 120.368 540.964 119.16C541.948 117.951 541.79 115.954 540.546 115.2C539.303 114.446 537.471 114.159 536.564 115.617C535.657 117.075 535.711 118.553 536.982 119.577Z" fill="#0F0F0F"/>
<path d="M583.404 240.802C588.027 244.524 596.458 239.868 601.643 234.821C606.828 229.774 606.099 220.768 599.675 216.538C593.251 212.308 585.817 212.855 581.281 218.425C576.745 223.995 578.782 237.08 583.404 240.802Z" fill="#FFD900"/>
<path d="M501.232 179.555C511.461 188.871 526.033 186.826 536.445 175.925C546.857 165.024 544.77 147.968 532.695 140.919C520.62 133.87 507.305 134.121 497.481 144.549C487.658 154.978 491.003 170.24 501.232 179.555Z" fill="#F0C933"/>
<path d="M533.531 186.167C534.803 187.324 536.614 187.07 537.908 185.715C539.203 184.36 538.943 182.24 537.442 181.364C535.941 180.488 534.286 180.519 533.065 181.815C531.844 183.112 532.26 185.009 533.531 186.167Z" fill="#F0C933"/>
<path d="M538.349 178.464C538.984 179.043 539.89 178.916 540.537 178.239C541.184 177.561 541.055 176.501 540.304 176.063C539.554 175.625 538.726 175.64 538.116 176.289C537.505 176.937 537.713 177.885 538.349 178.464Z" fill="#F0C933"/>
<path d="M576.102 141.945C579.974 145.471 585.49 144.697 589.432 140.57C593.373 136.444 592.583 129.988 588.012 127.319C583.441 124.651 578.401 124.746 574.682 128.693C570.964 132.641 572.23 138.418 576.102 141.945Z" fill="black"/>
<path d="M469.903 132.919C471.174 134.077 472.985 133.823 474.279 132.468C475.574 131.113 475.314 128.993 473.813 128.117C472.312 127.241 470.657 127.272 469.436 128.568C468.215 129.865 468.631 131.762 469.903 132.919Z" fill="#FFD900"/>
<path d="M573.906 146.473C573.031 147.951 573.657 149.66 575.259 150.637C576.861 151.614 578.893 150.921 579.442 149.279C579.992 147.637 579.617 146.033 578.089 145.115C576.56 144.197 574.78 144.996 573.906 146.473Z" fill="#FFD900"/>
<path d="M442.873 253.996C458.023 266.195 482.205 263.374 497.663 248.32C513.122 233.266 510.976 206.431 491.855 193.846C472.734 181.262 450.591 182.913 437.065 199.523C423.539 216.133 427.723 241.797 442.873 253.996Z" fill="#0F0F0F"/>
<path d="M663.601 115.185C675.884 125.076 675.892 141.311 667.831 155.212C659.771 169.113 646.091 181.909 636.547 193.629C627.003 205.348 609.366 208.361 596.295 197.836C583.225 187.311 581.189 168.495 592.064 157.809C602.939 147.123 611.715 131.01 623.349 119.392C634.983 107.774 651.317 105.293 663.601 115.185Z" fill="#0F0F0F"/>
<path d="M601.914 112.105C607.144 116.868 614.595 115.822 619.919 110.249C625.243 104.675 624.175 95.9538 618.001 92.3495C611.827 88.7452 605.019 88.8733 599.996 94.2056C594.973 99.5378 596.684 107.341 601.914 112.105Z" fill="#181818"/>
<path d="M528.655 286.762C542.988 299.815 563.405 296.95 577.994 281.676C592.583 266.402 589.658 242.504 572.739 232.627C555.82 222.75 537.164 223.101 523.399 237.713C509.635 252.325 514.322 273.709 528.655 286.762Z" fill="#FFD900"/>
<path d="M666.327 260.917C680.659 273.97 701.077 271.105 715.666 255.831C730.255 240.557 727.33 216.659 710.411 206.782C693.492 196.905 674.836 197.256 661.071 211.868C647.307 226.48 651.994 247.865 666.327 260.917Z" fill="#0F0F0F"/>
<path d="M617.262 73.6138C618.6 74.3422 620.256 74.4055 621.238 73.1993C622.22 71.9931 622.033 70.223 620.819 69.2457C619.606 68.2684 617.916 68.7338 616.843 69.6602C615.77 70.5865 615.925 72.8853 617.262 73.6138Z" fill="#FFD900"/>
<path d="M604.513 27.2206C616.796 37.1121 618.691 55.0328 608.744 67.2478C598.796 79.4627 585.665 92.671 577.459 105.665C569.254 118.658 548.282 121.239 537.207 109.872C526.132 98.504 521.884 83.4661 532.977 69.8444C544.069 56.2228 553.361 44.8126 564.261 31.4276C575.161 18.0426 592.229 17.3292 604.513 27.2206Z" fill="#FFD900"/>
<path d="M-74.9524 100.775C-49.8699 123.617 -14.1388 118.604 11.392 91.8739C36.9227 65.1441 31.8032 23.3225 2.19523 6.03778C-27.4128 -11.247 -60.061 -10.6325 -84.1492 14.9386C-108.237 40.5097 -100.035 77.9327 -74.9524 100.775Z" fill="#181818"/>
<path d="M68.5066 -19.3537C82.0404 -11.9767 98.7917 -11.3212 108.714 -23.5058C118.636 -35.6904 116.722 -53.5866 104.439 -63.4781C92.1551 -73.3695 75.0719 -68.6809 64.2313 -59.3259C53.3906 -49.971 54.9729 -26.7306 68.5066 -19.3537Z" fill="#FFD900"/>
<path d="M118.506 63.559C135.344 77.1181 135.356 99.3698 124.31 118.422C113.264 137.474 94.5143 155.011 81.4344 171.073C68.3546 187.135 44.179 191.261 26.2621 176.834C8.34531 162.406 5.55311 136.616 20.4579 121.971C35.3626 107.326 47.3883 85.2425 63.3334 69.3199C79.2784 53.3973 101.667 49.9999 118.506 63.559Z" fill="#181818"/>
<path d="M1.46894 137.404C6.0911 141.126 14.5223 136.47 19.7074 131.423C24.8925 126.376 24.163 117.369 17.7391 113.139C11.3152 108.91 3.8812 109.456 -0.654533 115.026C-5.19026 120.596 -3.15323 133.682 1.46894 137.404Z" fill="#FFD900"/>
<path d="M71.7154 70.0422C75.5876 73.5685 81.1037 72.7946 85.0451 68.6681C88.9865 64.5416 88.1961 58.0853 83.6253 55.4169C79.0545 52.7485 74.0143 52.8434 70.2956 56.791C66.577 60.7386 67.8432 66.5159 71.7154 70.0422Z" fill="#F0C933"/>
<path d="M81.5548 78.3892C82.8263 79.5471 84.6376 79.293 85.9318 77.938C87.2259 76.583 86.9664 74.463 85.4656 73.5869C83.9647 72.7107 82.3097 72.7418 81.0887 74.0381C79.8676 75.3343 80.2834 77.2313 81.5548 78.3892Z" fill="#F0C933"/>
<path d="M-5.8334 38.5461C-1.96121 42.0724 3.55489 41.2985 7.49627 37.172C11.4377 33.0455 10.6473 26.5892 6.0765 23.9208C1.50568 21.2524 -3.53449 21.3473 -7.25318 25.2949C-10.9719 29.2425 -9.70558 35.0198 -5.8334 38.5461Z" fill="black"/>
<path d="M66.3595 100.564C67.631 101.722 69.4423 101.468 70.7364 100.113C72.0306 98.7578 71.7711 96.6379 70.2702 95.7617C68.7694 94.8855 67.1144 94.9166 65.8933 96.2129C64.6723 97.5091 65.0881 99.4061 66.3595 100.564Z" fill="#FFD900"/>
<path d="M88.901 13.5471C92.7732 17.0734 98.2893 16.2995 102.231 12.173C106.172 8.04646 105.382 1.59016 100.811 -1.07823C96.2401 -3.74661 91.1999 -3.65176 87.4812 0.295856C83.7625 4.24347 85.0288 10.0208 88.901 13.5471Z" fill="#FFD900"/>
<path d="M81.6652 11.7864C93.9488 21.6779 93.9562 37.9126 85.8958 51.8136C77.8355 65.7146 64.1555 78.5107 54.6117 90.2304C45.0679 101.95 27.43 104.962 14.3596 94.4374C1.28915 83.9123 -0.746095 65.0962 10.1289 54.4102C21.0039 43.7242 29.779 27.6116 41.4131 15.9935C53.0471 4.37532 69.3816 1.89498 81.6652 11.7864Z" fill="#0F0F0F"/>
<path d="M19.9784 8.70614C25.2088 13.4693 32.6596 12.4239 37.9834 6.85008C43.3072 1.27623 42.2397 -7.44462 36.0657 -11.0489C29.8916 -14.6532 23.0837 -14.5251 18.0607 -9.19288C13.0377 -3.86066 14.7481 3.94299 19.9784 8.70614Z" fill="#181818"/>
<path d="M-53.2809 183.364C-38.948 196.416 -18.5302 193.552 -3.94118 178.277C10.6478 163.003 7.7224 139.105 -9.19647 129.228C-26.1153 119.351 -44.7715 119.702 -58.5361 134.314C-72.3008 148.926 -67.6137 170.311 -53.2809 183.364Z" fill="#FFD900"/>
<path d="M84.391 157.519C98.7239 170.572 119.142 167.707 133.731 152.433C148.32 137.158 145.394 113.26 128.475 103.383C111.557 93.5065 92.9004 93.8576 79.1357 108.47C65.371 123.082 70.0581 144.466 84.391 157.519Z" fill="#0F0F0F"/>
<path d="M22.5773 -76.1778C34.8609 -66.2864 36.755 -48.3656 26.808 -36.1507C16.8609 -23.9357 3.72905 -10.7274 -4.47614 2.2661C-12.6813 15.2596 -33.6532 17.8407 -44.7283 6.47313C-55.8034 -4.8944 -60.0515 -19.9324 -48.9589 -33.554C-37.8663 -47.1757 -28.5747 -58.5858 -17.6748 -71.9708C-6.77492 -85.3558 10.2937 -86.0693 22.5773 -76.1778Z" fill="#FFD900"/>
<path d="M173.427 90.5439H176.711L178.579 103.081L183.12 90.5439H186.232L190.48 102.592L192.458 90.5439H195.644L192.36 108H189.284L184.487 94.3037L179.335 108H176.296L173.427 90.5439ZM203.005 95.1826C206.895 95.1826 208.84 97.1683 208.84 101.14C208.84 101.669 208.803 102.198 208.73 102.727H200.222C200.222 104.533 201.548 105.437 204.201 105.437C205.495 105.437 206.789 105.314 208.083 105.07V107.634C206.952 107.878 205.576 108 203.957 108C199.31 108 196.987 105.815 196.987 101.445C196.987 97.27 198.993 95.1826 203.005 95.1826ZM200.222 100.48H205.69V100.383C205.69 98.6087 204.795 97.7217 203.005 97.7217C201.296 97.7217 200.368 98.6413 200.222 100.48ZM214.504 90.5439V108H211.269V90.5439H214.504ZM227.028 107.634C225.97 107.878 224.872 108 223.732 108C219.175 108 216.896 105.782 216.896 101.347C216.896 97.2375 219.175 95.1826 223.732 95.1826C224.872 95.1826 225.97 95.3047 227.028 95.5488V98.1123C225.97 97.8682 224.953 97.7461 223.977 97.7461C221.413 97.7461 220.131 98.9465 220.131 101.347C220.131 104.073 221.413 105.437 223.977 105.437C224.953 105.437 225.97 105.314 227.028 105.07V107.634ZM231.789 101.542C231.789 104.22 232.827 105.559 234.902 105.559C236.977 105.559 238.015 104.22 238.015 101.542C238.015 98.9302 236.977 97.624 234.902 97.624C232.827 97.624 231.789 98.9302 231.789 101.542ZM228.554 101.591C228.554 97.2944 230.67 95.146 234.902 95.146C239.134 95.146 241.25 97.2944 241.25 101.591C241.25 105.88 239.134 108.024 234.902 108.024C230.686 108.024 228.57 105.88 228.554 101.591ZM243.691 108V95.1826H246.193L246.572 97.0381C247.719 95.8011 249.099 95.1826 250.71 95.1826C252.321 95.1826 253.424 95.7686 254.018 96.9404C255.328 95.7686 256.7 95.1826 258.132 95.1826C261.078 95.1826 262.551 96.8062 262.551 100.053V108H259.316V99.9312C259.316 98.507 258.673 97.7949 257.387 97.7949C256.427 97.7949 255.503 98.2262 254.616 99.0889V108H251.381V99.9678C251.381 98.5192 250.787 97.7949 249.599 97.7949C248.655 97.7949 247.764 98.2262 246.926 99.0889V108H243.691ZM271.022 95.1826C274.912 95.1826 276.857 97.1683 276.857 101.14C276.857 101.669 276.821 102.198 276.748 102.727H268.239C268.239 104.533 269.566 105.437 272.219 105.437C273.513 105.437 274.807 105.314 276.101 105.07V107.634C274.969 107.878 273.594 108 271.975 108C267.328 108 265.004 105.815 265.004 101.445C265.004 97.27 267.01 95.1826 271.022 95.1826ZM268.239 100.48H273.708V100.383C273.708 98.6087 272.813 97.7217 271.022 97.7217C269.313 97.7217 268.386 98.6413 268.239 100.48ZM288.015 105.034C288.755 105.27 289.614 105.388 290.59 105.388C292.543 105.388 293.52 104.008 293.52 101.25C293.52 98.9953 292.678 97.8682 290.993 97.8682C289.903 97.8682 288.91 98.0879 288.015 98.5273V105.034ZM284.78 90.5439H288.015V96.1592C288.983 95.5081 290.061 95.1826 291.25 95.1826C294.895 95.1826 296.718 97.2334 296.718 101.335C296.718 105.778 294.631 108 290.456 108C288.698 108 286.806 107.825 284.78 107.475V90.5439ZM298.549 104.008C298.549 101.461 300.405 100.188 304.116 100.188C304.986 100.188 305.857 100.269 306.728 100.432V99.4673C306.728 98.3198 305.902 97.7461 304.25 97.7461C302.85 97.7461 301.296 97.9495 299.587 98.3564V95.793C301.296 95.3861 302.85 95.1826 304.25 95.1826C308.059 95.1826 309.963 96.5905 309.963 99.4062V108H308.083L306.936 106.853C305.821 107.618 304.592 108 303.249 108C300.116 108 298.549 106.669 298.549 104.008ZM306.728 102.629C305.914 102.466 305.043 102.385 304.116 102.385C302.561 102.385 301.784 102.914 301.784 103.972C301.784 105.111 302.435 105.681 303.737 105.681C304.812 105.681 305.808 105.347 306.728 104.68V102.629ZM322.487 107.634C321.429 107.878 320.331 108 319.191 108C314.634 108 312.355 105.782 312.355 101.347C312.355 97.2375 314.634 95.1826 319.191 95.1826C320.331 95.1826 321.429 95.3047 322.487 95.5488V98.1123C321.429 97.8682 320.412 97.7461 319.436 97.7461C316.872 97.7461 315.59 98.9465 315.59 101.347C315.59 104.073 316.872 105.437 319.436 105.437C320.412 105.437 321.429 105.314 322.487 105.07V107.634ZM324.624 108V90.5439H327.858V96.1836C329.185 95.5163 330.581 95.1826 332.045 95.1826C335.317 95.1826 336.953 96.4155 336.953 98.8813C336.953 100.672 335.813 102.071 333.535 103.081L337.514 108H333.559L330.214 103.422V101.921C332.55 101.424 333.718 100.611 333.718 99.4795C333.718 98.3239 332.945 97.7461 331.398 97.7461C330.316 97.7461 329.136 98.0879 327.858 98.7715V108H324.624ZM342.885 90.5439V103.483H339.65V90.5439H342.885ZM342.885 105.009V108H339.65V105.009H342.885Z" fill="white"/>
<path d="M173.342 133.225H174.565L175.939 141.729L178.701 133.225H179.966L182.926 141.729L184.478 133.225H185.646L183.808 143H182.085L179.323 134.811L176.65 143H174.948L173.342 133.225ZM189.974 135.822C192.015 135.822 193.036 136.832 193.036 138.851C193.036 139.138 193.016 139.445 192.975 139.773H187.937C187.937 141.241 188.793 141.975 190.507 141.975C191.323 141.975 192.047 141.883 192.681 141.701V142.727C192.047 142.909 191.277 143 190.37 143C187.905 143 186.672 141.776 186.672 139.329C186.672 136.991 187.772 135.822 189.974 135.822ZM187.937 138.721H191.819C191.792 137.463 191.177 136.834 189.974 136.834C188.698 136.834 188.019 137.463 187.937 138.721ZM195.661 133.225L195.456 136.198H194.602L194.396 133.225H195.661ZM197.377 143V135.822H198.231L198.457 136.738C199.086 136.128 199.842 135.822 200.727 135.822V136.875C199.87 136.875 199.175 137.178 198.642 137.784V143H197.377ZM204.958 135.822C207 135.822 208.021 136.832 208.021 138.851C208.021 139.138 208 139.445 207.959 139.773H202.921C202.921 141.241 203.778 141.975 205.491 141.975C206.307 141.975 207.032 141.883 207.665 141.701V142.727C207.032 142.909 206.261 143 205.354 143C202.889 143 201.656 141.776 201.656 139.329C201.656 136.991 202.757 135.822 204.958 135.822ZM202.921 138.721H206.804C206.776 137.463 206.161 136.834 204.958 136.834C203.682 136.834 203.003 137.463 202.921 138.721ZM213.141 134.66H213.934L214.207 135.822H216.148V136.848H214.405V140.97C214.405 141.64 214.695 141.975 215.273 141.975H216.148V143H214.945C213.742 143 213.141 142.355 213.141 141.065V134.66ZM217.762 143V133.225H219.026V136.602C219.637 136.082 220.382 135.822 221.262 135.822C223.053 135.822 223.948 136.713 223.948 138.495V143H222.684V138.475C222.684 137.408 222.153 136.875 221.091 136.875C220.366 136.875 219.678 137.178 219.026 137.784V143H217.762ZM226.006 143V135.822H226.86L227.086 136.738C227.715 136.128 228.471 135.822 229.355 135.822V136.875C228.499 136.875 227.804 137.178 227.271 137.784V143H226.006ZM232.028 135.822V143H230.764V135.822H232.028ZM232.028 133.225V134.421H230.764V133.225H232.028ZM235.556 133.225V143H234.291V133.225H235.556ZM239.015 133.225V143H237.75V133.225H239.015ZM244.101 135.822C246.142 135.822 247.163 136.832 247.163 138.851C247.163 139.138 247.143 139.445 247.102 139.773H242.063C242.063 141.241 242.92 141.975 244.634 141.975C245.45 141.975 246.174 141.883 246.808 141.701V142.727C246.174 142.909 245.404 143 244.497 143C242.032 143 240.799 141.776 240.799 139.329C240.799 136.991 241.899 135.822 244.101 135.822ZM242.063 138.721H245.946C245.919 137.463 245.304 136.834 244.101 136.834C242.825 136.834 242.146 137.463 242.063 138.721ZM253.685 137.285C253.174 137.039 252.591 136.916 251.935 136.916C250.49 136.916 249.768 137.684 249.768 139.22C249.768 141.038 250.49 141.947 251.935 141.947C252.591 141.947 253.174 141.858 253.685 141.681V137.285ZM254.949 142.569C254.079 142.856 253.006 143 251.729 143C249.592 143 248.523 141.756 248.523 139.268C248.523 136.971 249.658 135.822 251.928 135.822C252.548 135.822 253.133 135.936 253.685 136.164V133.225H254.949V142.569ZM260.418 134.66H261.211L261.484 135.822H263.426V136.848H261.683V140.97C261.683 141.64 261.972 141.975 262.551 141.975H263.426V143H262.223C261.02 143 260.418 142.355 260.418 141.065V134.66ZM265.962 139.384C265.962 141.111 266.68 141.975 268.115 141.975C269.551 141.975 270.269 141.111 270.269 139.384C270.269 137.693 269.551 136.848 268.115 136.848C266.68 136.848 265.962 137.693 265.962 139.384ZM264.697 139.411C264.697 137.019 265.837 135.822 268.115 135.822C270.394 135.822 271.533 137.019 271.533 139.411C271.533 141.799 270.394 142.993 268.115 142.993C265.846 142.993 264.706 141.799 264.697 139.411ZM276.66 143V133.225H277.925V136.602C278.535 136.082 279.281 135.822 280.16 135.822C281.951 135.822 282.847 136.713 282.847 138.495V143H281.582V138.475C281.582 137.408 281.051 136.875 279.989 136.875C279.265 136.875 278.576 137.178 277.925 137.784V143H276.66ZM284.562 140.833C284.562 139.361 285.533 138.625 287.475 138.625C288.099 138.625 288.723 138.671 289.348 138.762V138.085C289.348 137.26 288.703 136.848 287.413 136.848C286.675 136.848 285.918 136.962 285.144 137.189V136.164C285.918 135.936 286.675 135.822 287.413 135.822C289.546 135.822 290.612 136.565 290.612 138.051V143H289.901L289.464 142.289C288.748 142.763 287.969 143 287.126 143C285.417 143 284.562 142.278 284.562 140.833ZM287.475 139.65C286.376 139.65 285.827 140.038 285.827 140.812C285.827 141.587 286.26 141.975 287.126 141.975C288.001 141.975 288.742 141.742 289.348 141.277V139.787C288.723 139.696 288.099 139.65 287.475 139.65ZM291.645 135.822H293.012L295.069 141.448L297.113 135.822H298.48L295.562 143H294.386L291.645 135.822ZM302.466 135.822C304.507 135.822 305.528 136.832 305.528 138.851C305.528 139.138 305.508 139.445 305.467 139.773H300.429C300.429 141.241 301.285 141.975 302.999 141.975C303.815 141.975 304.539 141.883 305.173 141.701V142.727C304.539 142.909 303.769 143 302.862 143C300.397 143 299.164 141.776 299.164 139.329C299.164 136.991 300.265 135.822 302.466 135.822ZM300.429 138.721H304.312C304.284 137.463 303.669 136.834 302.466 136.834C301.19 136.834 300.511 137.463 300.429 138.721ZM309.794 135.822H311.168L313.198 141.428L315.297 135.822H316.637L313.656 143.212C313.128 144.515 312.335 145.329 311.277 145.652L310.792 144.757C311.594 144.406 312.177 143.834 312.542 143.041L309.794 135.822ZM318.749 139.384C318.749 141.111 319.467 141.975 320.902 141.975C322.338 141.975 323.056 141.111 323.056 139.384C323.056 137.693 322.338 136.848 320.902 136.848C319.467 136.848 318.749 137.693 318.749 139.384ZM317.484 139.411C317.484 137.019 318.624 135.822 320.902 135.822C323.181 135.822 324.32 137.019 324.32 139.411C324.32 141.799 323.181 142.993 320.902 142.993C318.633 142.993 317.493 141.799 317.484 139.411ZM332.216 135.822V143H331.348L331.129 142.084C330.258 142.695 329.383 143 328.504 143C326.854 143 326.029 142.109 326.029 140.327V135.822H327.294V140.348C327.294 141.414 327.823 141.947 328.88 141.947C329.604 141.947 330.295 141.644 330.951 141.038V135.822H332.216ZM338.956 141.749C339.371 141.881 339.874 141.947 340.467 141.947C342.062 141.947 342.859 141.038 342.859 139.22C342.859 137.684 342.137 136.916 340.692 136.916C340.036 136.916 339.457 137.039 338.956 137.285V141.749ZM337.691 133.225H338.956V136.164C339.498 135.936 340.079 135.822 340.699 135.822C342.969 135.822 344.104 136.971 344.104 139.268C344.104 141.756 342.912 143 340.528 143C339.498 143 338.553 142.902 337.691 142.706V133.225ZM345.471 140.833C345.471 139.361 346.441 138.625 348.383 138.625C349.007 138.625 349.632 138.671 350.256 138.762V138.085C350.256 137.26 349.611 136.848 348.321 136.848C347.583 136.848 346.826 136.962 346.052 137.189V136.164C346.826 135.936 347.583 135.822 348.321 135.822C350.454 135.822 351.521 136.565 351.521 138.051V143H350.81L350.372 142.289C349.657 142.763 348.877 143 348.034 143C346.325 143 345.471 142.278 345.471 140.833ZM348.383 139.65C347.285 139.65 346.735 140.038 346.735 140.812C346.735 141.587 347.168 141.975 348.034 141.975C348.909 141.975 349.65 141.742 350.256 141.277V139.787C349.632 139.696 349.007 139.65 348.383 139.65ZM358.979 142.795C358.386 142.932 357.748 143 357.064 143C354.512 143 353.236 141.758 353.236 139.274C353.236 136.973 354.512 135.822 357.064 135.822C357.748 135.822 358.386 135.891 358.979 136.027V137.053C358.386 136.916 357.725 136.848 356.996 136.848C355.333 136.848 354.501 137.657 354.501 139.274C354.501 141.075 355.333 141.975 356.996 141.975C357.725 141.975 358.386 141.906 358.979 141.77V142.795ZM360.592 143V133.225H361.856V136.383C362.554 136.009 363.358 135.822 364.27 135.822C366.056 135.822 366.949 136.513 366.949 137.894C366.949 138.896 366.266 139.589 364.898 139.972L367.195 143H365.596L363.312 139.958V139.391C364.894 139.249 365.685 138.748 365.685 137.887C365.685 137.194 365.183 136.848 364.181 136.848C363.392 136.848 362.618 137.062 361.856 137.49V143H360.592ZM373.013 139.384C373.013 141.111 373.73 141.975 375.166 141.975C376.602 141.975 377.319 141.111 377.319 139.384C377.319 137.693 376.602 136.848 375.166 136.848C373.73 136.848 373.013 137.693 373.013 139.384ZM371.748 139.411C371.748 137.019 372.887 135.822 375.166 135.822C377.445 135.822 378.584 137.019 378.584 139.411C378.584 141.799 377.445 142.993 375.166 142.993C372.896 142.993 371.757 141.799 371.748 139.411ZM380.293 143V135.822H381.147L381.373 136.738C382.107 136.128 382.913 135.822 383.793 135.822C385.584 135.822 386.479 136.713 386.479 138.495V143H385.215V138.475C385.215 137.408 384.684 136.875 383.622 136.875C382.897 136.875 382.209 137.178 381.558 137.784V143H380.293ZM398.688 133.225V134.25H395.612V143H394.348V134.25H391.271V133.225H398.688ZM406.249 135.822V143H405.381L405.162 142.084C404.292 142.695 403.417 143 402.537 143C400.887 143 400.062 142.109 400.062 140.327V135.822H401.327V140.348C401.327 141.414 401.856 141.947 402.913 141.947C403.638 141.947 404.328 141.644 404.984 141.038V135.822H406.249ZM409.64 133.225V143H408.375V133.225H409.64ZM417.952 135.822V143H417.084L416.865 142.084C415.995 142.695 415.12 143 414.24 143C412.59 143 411.766 142.109 411.766 140.327V135.822H413.03V140.348C413.03 141.414 413.559 141.947 414.616 141.947C415.341 141.947 416.031 141.644 416.688 141.038V135.822H417.952ZM420.146 143V133.225H424.111C426.107 133.225 427.105 134.097 427.105 135.843C427.105 137.743 425.741 138.903 423.011 139.322L422.751 138.256C424.756 137.96 425.759 137.174 425.759 135.897C425.759 134.813 425.171 134.271 423.995 134.271H421.411V143H420.146ZM428.309 140.833C428.309 139.361 429.279 138.625 431.221 138.625C431.845 138.625 432.469 138.671 433.094 138.762V138.085C433.094 137.26 432.449 136.848 431.159 136.848C430.421 136.848 429.664 136.962 428.89 137.189V136.164C429.664 135.936 430.421 135.822 431.159 135.822C433.292 135.822 434.358 136.565 434.358 138.051V143H433.647L433.21 142.289C432.494 142.763 431.715 143 430.872 143C429.163 143 428.309 142.278 428.309 140.833ZM431.221 139.65C430.122 139.65 429.573 140.038 429.573 140.812C429.573 141.587 430.006 141.975 430.872 141.975C431.747 141.975 432.488 141.742 433.094 141.277V139.787C432.469 139.696 431.845 139.65 431.221 139.65ZM435.562 135.822H436.936L438.966 141.428L441.064 135.822H442.404L439.424 143.212C438.895 144.515 438.102 145.329 437.045 145.652L436.56 144.757C437.362 144.406 437.945 143.834 438.31 143.041L435.562 135.822Z" fill="white" fill-opacity="0.6"/>
</g>
<defs>
<clipPath id="clip0_4601_5167">
<rect width="642" height="246" rx="10" fill="white"/>
</clipPath>
</defs>
</svg>
