<svg width="642" height="246" viewBox="0 0 642 246" fill="none" xmlns="http://www.w3.org/2000/svg">
<g clip-path="url(#clip0_4640_4398)">
<rect width="642" height="246" rx="10" fill="black"/>
<path d="M506.983 204.173C532.066 227.015 567.797 222.002 593.328 195.272C618.858 168.542 613.739 126.721 584.131 109.436C554.523 92.1515 521.875 92.766 497.786 118.337C473.698 143.908 481.901 181.331 506.983 204.173Z" fill="#181818"/>
<path d="M650.442 84.0448C663.976 91.4217 680.727 92.0772 690.65 79.8926C700.572 67.708 698.658 49.8118 686.374 39.9203C674.091 30.0289 657.007 34.7176 646.167 44.0725C635.326 53.4274 636.908 76.6678 650.442 84.0448Z" fill="#FFD900"/>
<path d="M700.441 166.957C717.279 180.517 717.292 202.768 706.245 221.82C695.199 240.872 676.45 258.409 663.37 274.471C650.29 290.533 626.115 294.66 608.198 280.232C590.281 265.804 587.489 240.014 602.393 225.369C617.298 210.724 629.324 188.641 645.269 172.718C661.214 156.796 683.603 153.398 700.441 166.957Z" fill="#181818"/>
<path d="M474.982 118.603C488.408 129.415 506.64 126.969 517.032 114.208C527.423 101.448 525.746 80.3571 512.612 72.3932C499.478 64.4292 480.134 61.3978 470.562 76.7881C460.991 92.1784 461.555 107.791 474.982 118.603Z" fill="#0F0F0F"/>
<path d="M516.182 216.131C520.441 219.56 526.225 218.782 529.522 214.733C532.82 210.684 532.289 203.993 528.123 201.467C523.957 198.941 517.821 197.981 514.783 202.865C511.746 207.748 511.924 212.701 516.182 216.131Z" fill="#0F0F0F"/>
<path d="M458.86 78.8581C461.656 81.1101 465.455 80.5996 467.62 77.9404C469.786 75.2812 469.437 70.8871 466.701 69.2284C463.966 67.5698 459.936 66.9391 457.941 70.1461C455.946 73.3532 456.063 76.6061 458.86 78.8581Z" fill="#FFD900"/>
<path d="M535.222 203.521C533.607 204.122 533.013 205.842 533.639 207.604C534.266 209.366 536.283 210.098 537.75 209.166C539.216 208.234 539.94 206.754 539.333 205.083C538.725 203.413 536.837 202.92 535.222 203.521Z" fill="#FFD900"/>
<path d="M524.481 118.969C527.277 121.221 531.076 120.711 533.241 118.052C535.407 115.393 535.058 110.998 532.322 109.34C529.587 107.681 525.557 107.05 523.562 110.257C521.567 113.465 521.684 116.717 524.481 118.969Z" fill="#FFD900"/>
<path d="M536.982 119.577C538.253 120.6 539.98 120.368 540.964 119.16C541.948 117.951 541.79 115.954 540.546 115.2C539.303 114.446 537.471 114.159 536.564 115.617C535.657 117.075 535.711 118.553 536.982 119.577Z" fill="#0F0F0F"/>
<path d="M583.404 240.802C588.027 244.524 596.458 239.868 601.643 234.821C606.828 229.774 606.099 220.768 599.675 216.538C593.251 212.308 585.817 212.855 581.281 218.425C576.745 223.995 578.782 237.08 583.404 240.802Z" fill="#FFD900"/>
<path d="M501.232 179.555C511.461 188.871 526.033 186.826 536.445 175.925C546.857 165.024 544.77 147.968 532.695 140.919C520.62 133.87 507.305 134.121 497.481 144.549C487.658 154.978 491.003 170.24 501.232 179.555Z" fill="#F0C933"/>
<path d="M533.531 186.167C534.803 187.324 536.614 187.07 537.908 185.715C539.203 184.36 538.943 182.24 537.442 181.364C535.941 180.488 534.286 180.519 533.065 181.815C531.844 183.112 532.26 185.009 533.531 186.167Z" fill="#F0C933"/>
<path d="M538.349 178.464C538.984 179.043 539.89 178.916 540.537 178.239C541.184 177.561 541.055 176.501 540.304 176.063C539.554 175.625 538.726 175.64 538.116 176.289C537.505 176.937 537.713 177.885 538.349 178.464Z" fill="#F0C933"/>
<path d="M576.102 141.945C579.974 145.471 585.49 144.697 589.432 140.57C593.373 136.444 592.583 129.988 588.012 127.319C583.441 124.651 578.401 124.746 574.682 128.693C570.964 132.641 572.23 138.418 576.102 141.945Z" fill="black"/>
<path d="M469.903 132.919C471.174 134.077 472.985 133.823 474.279 132.468C475.574 131.113 475.314 128.993 473.813 128.117C472.312 127.241 470.657 127.272 469.436 128.568C468.215 129.865 468.631 131.762 469.903 132.919Z" fill="#FFD900"/>
<path d="M573.906 146.473C573.031 147.951 573.657 149.66 575.259 150.637C576.861 151.614 578.893 150.921 579.442 149.279C579.992 147.637 579.617 146.033 578.089 145.115C576.56 144.197 574.78 144.996 573.906 146.473Z" fill="#FFD900"/>
<path d="M442.873 253.996C458.023 266.195 482.205 263.374 497.663 248.32C513.122 233.266 510.976 206.431 491.855 193.846C472.734 181.262 450.591 182.913 437.065 199.523C423.539 216.133 427.723 241.797 442.873 253.996Z" fill="#0F0F0F"/>
<path d="M663.601 115.185C675.884 125.076 675.892 141.311 667.831 155.212C659.771 169.113 646.091 181.909 636.547 193.629C627.003 205.348 609.366 208.361 596.295 197.836C583.225 187.311 581.189 168.495 592.064 157.809C602.939 147.123 611.715 131.01 623.349 119.392C634.983 107.774 651.317 105.293 663.601 115.185Z" fill="#0F0F0F"/>
<path d="M601.914 112.105C607.144 116.868 614.595 115.822 619.919 110.249C625.243 104.675 624.175 95.9538 618.001 92.3495C611.827 88.7452 605.019 88.8733 599.996 94.2056C594.973 99.5378 596.684 107.341 601.914 112.105Z" fill="#181818"/>
<path d="M528.655 286.762C542.988 299.815 563.405 296.95 577.994 281.676C592.583 266.402 589.658 242.504 572.739 232.627C555.82 222.75 537.164 223.101 523.399 237.713C509.635 252.325 514.322 273.709 528.655 286.762Z" fill="#FFD900"/>
<path d="M666.327 260.917C680.659 273.97 701.077 271.105 715.666 255.831C730.255 240.557 727.33 216.659 710.411 206.782C693.492 196.905 674.836 197.256 661.071 211.868C647.307 226.48 651.994 247.865 666.327 260.917Z" fill="#0F0F0F"/>
<path d="M617.262 73.6138C618.6 74.3422 620.256 74.4055 621.238 73.1993C622.22 71.9931 622.033 70.223 620.819 69.2457C619.606 68.2684 617.916 68.7338 616.843 69.6602C615.77 70.5865 615.925 72.8853 617.262 73.6138Z" fill="#FFD900"/>
<path d="M604.513 27.2206C616.796 37.1121 618.691 55.0328 608.744 67.2478C598.796 79.4627 585.665 92.671 577.459 105.665C569.254 118.658 548.282 121.239 537.207 109.872C526.132 98.504 521.884 83.4661 532.977 69.8444C544.069 56.2228 553.361 44.8126 564.261 31.4276C575.161 18.0426 592.229 17.3292 604.513 27.2206Z" fill="#FFD900"/>
<path d="M-74.9524 100.775C-49.8699 123.617 -14.1388 118.604 11.392 91.8739C36.9227 65.1441 31.8032 23.3225 2.19523 6.03778C-27.4128 -11.247 -60.061 -10.6325 -84.1492 14.9386C-108.237 40.5097 -100.035 77.9327 -74.9524 100.775Z" fill="#181818"/>
<path d="M68.5066 -19.3537C82.0404 -11.9767 98.7917 -11.3212 108.714 -23.5058C118.636 -35.6904 116.722 -53.5866 104.439 -63.4781C92.1551 -73.3695 75.0719 -68.6809 64.2313 -59.3259C53.3906 -49.971 54.9729 -26.7306 68.5066 -19.3537Z" fill="#FFD900"/>
<path d="M118.506 63.559C135.344 77.1181 135.356 99.3698 124.31 118.422C113.264 137.474 94.5143 155.011 81.4344 171.073C68.3546 187.135 44.179 191.261 26.2621 176.834C8.34531 162.406 5.55311 136.616 20.4579 121.971C35.3626 107.326 47.3883 85.2425 63.3334 69.3199C79.2784 53.3973 101.667 49.9999 118.506 63.559Z" fill="#181818"/>
<path d="M1.46894 137.404C6.0911 141.126 14.5223 136.47 19.7074 131.423C24.8925 126.376 24.163 117.369 17.7391 113.139C11.3152 108.91 3.8812 109.456 -0.654533 115.026C-5.19026 120.596 -3.15323 133.682 1.46894 137.404Z" fill="#FFD900"/>
<path d="M71.7154 70.0422C75.5876 73.5685 81.1037 72.7946 85.0451 68.6681C88.9865 64.5416 88.1961 58.0853 83.6253 55.4169C79.0545 52.7485 74.0143 52.8434 70.2956 56.791C66.577 60.7386 67.8432 66.5159 71.7154 70.0422Z" fill="#F0C933"/>
<path d="M81.5548 78.3892C82.8263 79.5471 84.6376 79.293 85.9318 77.938C87.2259 76.583 86.9664 74.463 85.4656 73.5869C83.9647 72.7107 82.3097 72.7418 81.0887 74.0381C79.8676 75.3343 80.2834 77.2313 81.5548 78.3892Z" fill="#F0C933"/>
<path d="M-5.8334 38.5461C-1.96121 42.0724 3.55489 41.2985 7.49627 37.172C11.4377 33.0455 10.6473 26.5892 6.0765 23.9208C1.50568 21.2524 -3.53449 21.3473 -7.25318 25.2949C-10.9719 29.2425 -9.70558 35.0198 -5.8334 38.5461Z" fill="black"/>
<path d="M66.3595 100.564C67.631 101.722 69.4423 101.468 70.7364 100.113C72.0306 98.7578 71.7711 96.6379 70.2702 95.7617C68.7694 94.8855 67.1144 94.9166 65.8933 96.2129C64.6723 97.5091 65.0881 99.4061 66.3595 100.564Z" fill="#FFD900"/>
<path d="M88.901 13.5471C92.7732 17.0734 98.2893 16.2995 102.231 12.173C106.172 8.04646 105.382 1.59016 100.811 -1.07823C96.2401 -3.74661 91.1999 -3.65176 87.4812 0.295856C83.7625 4.24347 85.0288 10.0208 88.901 13.5471Z" fill="#FFD900"/>
<path d="M81.6652 11.7864C93.9488 21.6779 93.9562 37.9126 85.8958 51.8136C77.8355 65.7146 64.1555 78.5107 54.6117 90.2304C45.0679 101.95 27.43 104.962 14.3596 94.4374C1.28915 83.9123 -0.746095 65.0962 10.1289 54.4102C21.0039 43.7242 29.779 27.6116 41.4131 15.9935C53.0471 4.37532 69.3816 1.89498 81.6652 11.7864Z" fill="#0F0F0F"/>
<path d="M19.9784 8.70614C25.2088 13.4693 32.6596 12.4239 37.9834 6.85008C43.3072 1.27623 42.2397 -7.44462 36.0657 -11.0489C29.8916 -14.6532 23.0837 -14.5251 18.0607 -9.19288C13.0377 -3.86066 14.7481 3.94299 19.9784 8.70614Z" fill="#181818"/>
<path d="M-53.2809 183.364C-38.948 196.416 -18.5302 193.552 -3.94118 178.277C10.6478 163.003 7.7224 139.105 -9.19647 129.228C-26.1153 119.351 -44.7715 119.702 -58.5361 134.314C-72.3008 148.926 -67.6137 170.311 -53.2809 183.364Z" fill="#FFD900"/>
<path d="M84.391 157.519C98.7239 170.572 119.142 167.707 133.731 152.433C148.32 137.158 145.394 113.26 128.475 103.383C111.557 93.5065 92.9004 93.8576 79.1357 108.47C65.371 123.082 70.0581 144.466 84.391 157.519Z" fill="#0F0F0F"/>
<path d="M22.5773 -76.1778C34.8609 -66.2864 36.755 -48.3656 26.808 -36.1507C16.8609 -23.9357 3.72905 -10.7274 -4.47614 2.2661C-12.6813 15.2596 -33.6532 17.8407 -44.7283 6.47313C-55.8034 -4.8944 -60.0515 -19.9324 -48.9589 -33.554C-37.8663 -47.1757 -28.5747 -58.5858 -17.6748 -71.9708C-6.77492 -85.3558 10.2937 -86.0693 22.5773 -76.1778Z" fill="#FFD900"/>
<path d="M225.245 111.544V114.352H220.24V129H217.005V114.352H212V111.544H225.245ZM226.783 129V116.183H229.285L229.688 117.818C230.811 116.728 231.999 116.183 233.252 116.183V118.795C232.048 118.795 230.97 119.295 230.018 120.296V129H226.783ZM234.473 125.008C234.473 122.461 236.329 121.188 240.04 121.188C240.91 121.188 241.781 121.269 242.652 121.432V120.467C242.652 119.32 241.826 118.746 240.174 118.746C238.774 118.746 237.22 118.95 235.511 119.356V116.793C237.22 116.386 238.774 116.183 240.174 116.183C243.982 116.183 245.887 117.59 245.887 120.406V129H244.007L242.859 127.853C241.744 128.618 240.516 129 239.173 129C236.04 129 234.473 127.669 234.473 125.008ZM242.652 123.629C241.838 123.466 240.967 123.385 240.04 123.385C238.485 123.385 237.708 123.914 237.708 124.972C237.708 126.111 238.359 126.681 239.661 126.681C240.735 126.681 241.732 126.347 242.652 125.68V123.629ZM248.951 129V116.183H251.453L251.856 118.062C253.085 116.809 254.485 116.183 256.055 116.183C259.091 116.183 260.608 117.761 260.608 120.919V129H257.374V120.919C257.374 119.503 256.67 118.795 255.262 118.795C254.212 118.795 253.187 119.214 252.186 120.052V129H248.951ZM263.672 128.39V125.704C265.097 126.274 266.74 126.559 268.604 126.559C269.996 126.559 270.691 126.111 270.691 125.216C270.691 124.361 270.223 123.934 269.288 123.934H266.968C264.364 123.934 263.062 122.652 263.062 120.089C263.062 117.403 264.962 116.061 268.763 116.061C270.374 116.061 271.892 116.305 273.316 116.793V119.479C271.892 118.909 270.346 118.624 268.677 118.624C266.928 118.624 266.053 119.072 266.053 119.967C266.053 120.821 266.561 121.249 267.579 121.249H269.654C272.502 121.249 273.926 122.53 273.926 125.094C273.926 127.779 272.111 129.122 268.482 129.122C266.7 129.122 265.097 128.878 263.672 128.39ZM275.586 125.008C275.586 122.461 277.442 121.188 281.153 121.188C282.024 121.188 282.894 121.269 283.765 121.432V120.467C283.765 119.32 282.939 118.746 281.287 118.746C279.887 118.746 278.333 118.95 276.624 119.356V116.793C278.333 116.386 279.887 116.183 281.287 116.183C285.096 116.183 287 117.59 287 120.406V129H285.12L283.973 127.853C282.858 128.618 281.629 129 280.286 129C277.153 129 275.586 127.669 275.586 125.008ZM283.765 123.629C282.951 123.466 282.081 123.385 281.153 123.385C279.598 123.385 278.821 123.914 278.821 124.972C278.821 126.111 279.472 126.681 280.774 126.681C281.849 126.681 282.846 126.347 283.765 125.68V123.629ZM299.524 128.634C298.466 128.878 297.368 129 296.229 129C291.671 129 289.393 126.782 289.393 122.347C289.393 118.237 291.671 116.183 296.229 116.183C297.368 116.183 298.466 116.305 299.524 116.549V119.112C298.466 118.868 297.449 118.746 296.473 118.746C293.909 118.746 292.627 119.946 292.627 122.347C292.627 125.073 293.909 126.437 296.473 126.437C297.449 126.437 298.466 126.314 299.524 126.07V128.634ZM301.478 114.107H303.87L304.358 116.183H307.581V118.746H304.712V124.642C304.712 125.838 305.229 126.437 306.263 126.437H307.581V129H304.7C302.552 129 301.478 127.848 301.478 125.545V114.107ZM313.025 111.544V114.107H309.791V111.544H313.025ZM313.025 116.183V129H309.791V116.183H313.025ZM318.714 122.542C318.714 125.22 319.751 126.559 321.827 126.559C323.902 126.559 324.939 125.22 324.939 122.542C324.939 119.93 323.902 118.624 321.827 118.624C319.751 118.624 318.714 119.93 318.714 122.542ZM315.479 122.591C315.479 118.294 317.595 116.146 321.827 116.146C326.058 116.146 328.174 118.294 328.174 122.591C328.174 126.88 326.058 129.024 321.827 129.024C317.611 129.024 315.495 126.88 315.479 122.591ZM330.616 129V116.183H333.118L333.521 118.062C334.75 116.809 336.15 116.183 337.72 116.183C340.756 116.183 342.273 117.761 342.273 120.919V129H339.039V120.919C339.039 119.503 338.335 118.795 336.927 118.795C335.877 118.795 334.852 119.214 333.851 120.052V129H330.616ZM354.065 125.655C354.871 126.095 355.738 126.314 356.666 126.314C358.594 126.314 359.559 124.959 359.559 122.25C359.559 119.946 358.493 118.795 356.36 118.795C355.441 118.795 354.676 118.852 354.065 118.966V125.655ZM350.831 116.708C352.531 116.358 354.33 116.183 356.226 116.183C360.58 116.183 362.757 118.213 362.757 122.274C362.757 126.758 360.73 129 356.678 129C355.815 129 354.944 128.797 354.065 128.39V133.639H350.831V116.708ZM368.445 111.544V114.107H365.21V111.544H368.445ZM368.445 116.183V129H365.21V116.183H368.445ZM371.509 129V116.183H374.012L374.415 118.062C375.643 116.809 377.043 116.183 378.614 116.183C381.649 116.183 383.167 117.761 383.167 120.919V129H379.932V120.919C379.932 119.503 379.228 118.795 377.82 118.795C376.771 118.795 375.745 119.214 374.744 120.052V129H371.509Z" fill="white"/>
</g>
<defs>
<clipPath id="clip0_4640_4398">
<rect width="642" height="246" rx="10" fill="white"/>
</clipPath>
</defs>
</svg>
