<svg width="642" height="246" viewBox="0 0 642 246" fill="none" xmlns="http://www.w3.org/2000/svg">
<g clip-path="url(#clip0_4601_5908)">
<rect width="642" height="246" rx="10" fill="black"/>
<path d="M506.983 204.173C532.066 227.015 567.797 222.002 593.328 195.272C618.858 168.542 613.739 126.721 584.131 109.436C554.523 92.1515 521.875 92.766 497.786 118.337C473.698 143.908 481.901 181.331 506.983 204.173Z" fill="#181818"/>
<path d="M650.442 84.0448C663.976 91.4217 680.727 92.0772 690.65 79.8926C700.572 67.708 698.658 49.8118 686.374 39.9203C674.091 30.0289 657.007 34.7176 646.167 44.0725C635.326 53.4274 636.908 76.6678 650.442 84.0448Z" fill="#FFD900"/>
<path d="M700.441 166.957C717.279 180.517 717.292 202.768 706.245 221.82C695.199 240.872 676.45 258.409 663.37 274.471C650.29 290.533 626.115 294.66 608.198 280.232C590.281 265.804 587.489 240.014 602.393 225.369C617.298 210.724 629.324 188.641 645.269 172.718C661.214 156.796 683.603 153.398 700.441 166.957Z" fill="#181818"/>
<path d="M474.982 118.603C488.408 129.415 506.64 126.969 517.032 114.208C527.423 101.448 525.746 80.3571 512.612 72.3932C499.478 64.4292 480.134 61.3978 470.562 76.7881C460.991 92.1784 461.555 107.791 474.982 118.603Z" fill="#0F0F0F"/>
<path d="M516.182 216.131C520.441 219.56 526.225 218.782 529.522 214.733C532.82 210.684 532.289 203.993 528.123 201.467C523.957 198.941 517.821 197.981 514.783 202.865C511.746 207.748 511.924 212.701 516.182 216.131Z" fill="#0F0F0F"/>
<path d="M458.86 78.8581C461.656 81.1101 465.455 80.5996 467.62 77.9404C469.786 75.2812 469.437 70.8871 466.701 69.2284C463.966 67.5698 459.936 66.9391 457.941 70.1461C455.946 73.3532 456.063 76.6061 458.86 78.8581Z" fill="#FFD900"/>
<path d="M535.222 203.521C533.607 204.122 533.013 205.842 533.639 207.604C534.266 209.366 536.283 210.098 537.75 209.166C539.216 208.234 539.94 206.754 539.333 205.083C538.725 203.413 536.837 202.92 535.222 203.521Z" fill="#FFD900"/>
<path d="M524.481 118.969C527.277 121.221 531.076 120.711 533.241 118.052C535.407 115.393 535.058 110.998 532.322 109.34C529.587 107.681 525.557 107.05 523.562 110.257C521.567 113.465 521.684 116.717 524.481 118.969Z" fill="#FFD900"/>
<path d="M536.982 119.577C538.253 120.6 539.98 120.368 540.964 119.16C541.948 117.951 541.79 115.954 540.546 115.2C539.303 114.446 537.471 114.159 536.564 115.617C535.657 117.075 535.711 118.553 536.982 119.577Z" fill="#0F0F0F"/>
<path d="M583.404 240.802C588.027 244.524 596.458 239.868 601.643 234.821C606.828 229.774 606.099 220.768 599.675 216.538C593.251 212.308 585.817 212.855 581.281 218.425C576.745 223.995 578.782 237.08 583.404 240.802Z" fill="#FFD900"/>
<path d="M501.232 179.555C511.461 188.871 526.033 186.826 536.445 175.925C546.857 165.024 544.77 147.968 532.695 140.919C520.62 133.87 507.305 134.121 497.481 144.549C487.658 154.978 491.003 170.24 501.232 179.555Z" fill="#F0C933"/>
<path d="M533.531 186.167C534.803 187.324 536.614 187.07 537.908 185.715C539.203 184.36 538.943 182.24 537.442 181.364C535.941 180.488 534.286 180.519 533.065 181.815C531.844 183.112 532.26 185.009 533.531 186.167Z" fill="#F0C933"/>
<path d="M538.349 178.464C538.984 179.043 539.89 178.916 540.537 178.239C541.184 177.561 541.055 176.501 540.304 176.063C539.554 175.625 538.726 175.64 538.116 176.289C537.505 176.937 537.713 177.885 538.349 178.464Z" fill="#F0C933"/>
<path d="M576.102 141.945C579.974 145.471 585.49 144.697 589.432 140.57C593.373 136.444 592.583 129.988 588.012 127.319C583.441 124.651 578.401 124.746 574.682 128.693C570.964 132.641 572.23 138.418 576.102 141.945Z" fill="black"/>
<path d="M469.903 132.919C471.174 134.077 472.985 133.823 474.279 132.468C475.574 131.113 475.314 128.993 473.813 128.117C472.312 127.241 470.657 127.272 469.436 128.568C468.215 129.865 468.631 131.762 469.903 132.919Z" fill="#FFD900"/>
<path d="M573.906 146.473C573.031 147.951 573.657 149.66 575.259 150.637C576.861 151.614 578.893 150.921 579.442 149.279C579.992 147.637 579.617 146.033 578.089 145.115C576.56 144.197 574.78 144.996 573.906 146.473Z" fill="#FFD900"/>
<path d="M442.873 253.996C458.023 266.195 482.205 263.374 497.663 248.32C513.122 233.266 510.976 206.431 491.855 193.846C472.734 181.262 450.591 182.913 437.065 199.523C423.539 216.133 427.723 241.797 442.873 253.996Z" fill="#0F0F0F"/>
<path d="M663.601 115.185C675.884 125.076 675.892 141.311 667.831 155.212C659.771 169.113 646.091 181.909 636.547 193.629C627.003 205.348 609.366 208.361 596.295 197.836C583.225 187.311 581.189 168.495 592.064 157.809C602.939 147.123 611.715 131.01 623.349 119.392C634.983 107.774 651.317 105.293 663.601 115.185Z" fill="#0F0F0F"/>
<path d="M601.914 112.105C607.144 116.868 614.595 115.822 619.919 110.249C625.243 104.675 624.175 95.9538 618.001 92.3495C611.827 88.7452 605.019 88.8733 599.996 94.2056C594.973 99.5378 596.684 107.341 601.914 112.105Z" fill="#181818"/>
<path d="M528.655 286.762C542.988 299.815 563.405 296.95 577.994 281.676C592.583 266.402 589.658 242.504 572.739 232.627C555.82 222.75 537.164 223.101 523.399 237.713C509.635 252.325 514.322 273.709 528.655 286.762Z" fill="#FFD900"/>
<path d="M666.327 260.917C680.659 273.97 701.077 271.105 715.666 255.831C730.255 240.557 727.33 216.659 710.411 206.782C693.492 196.905 674.836 197.256 661.071 211.868C647.307 226.48 651.994 247.865 666.327 260.917Z" fill="#0F0F0F"/>
<path d="M617.262 73.6138C618.6 74.3422 620.256 74.4055 621.238 73.1993C622.22 71.9931 622.033 70.223 620.819 69.2457C619.606 68.2684 617.916 68.7338 616.843 69.6602C615.77 70.5865 615.925 72.8853 617.262 73.6138Z" fill="#FFD900"/>
<path d="M604.513 27.2206C616.796 37.1121 618.691 55.0328 608.744 67.2478C598.796 79.4627 585.665 92.671 577.459 105.665C569.254 118.658 548.282 121.239 537.207 109.872C526.132 98.504 521.884 83.4661 532.977 69.8444C544.069 56.2228 553.361 44.8126 564.261 31.4276C575.161 18.0426 592.229 17.3292 604.513 27.2206Z" fill="#FFD900"/>
<path d="M-74.9524 100.775C-49.8699 123.617 -14.1388 118.604 11.392 91.8739C36.9227 65.1441 31.8032 23.3225 2.19523 6.03778C-27.4128 -11.247 -60.061 -10.6325 -84.1492 14.9386C-108.237 40.5097 -100.035 77.9327 -74.9524 100.775Z" fill="#181818"/>
<path d="M68.5066 -19.3537C82.0404 -11.9767 98.7917 -11.3212 108.714 -23.5058C118.636 -35.6904 116.722 -53.5866 104.439 -63.4781C92.1551 -73.3695 75.0719 -68.6809 64.2313 -59.3259C53.3906 -49.971 54.9729 -26.7306 68.5066 -19.3537Z" fill="#FFD900"/>
<path d="M118.506 63.559C135.344 77.1181 135.356 99.3698 124.31 118.422C113.264 137.474 94.5143 155.011 81.4344 171.073C68.3546 187.135 44.179 191.261 26.2621 176.834C8.34531 162.406 5.55311 136.616 20.4579 121.971C35.3626 107.326 47.3883 85.2425 63.3334 69.3199C79.2784 53.3973 101.667 49.9999 118.506 63.559Z" fill="#181818"/>
<path d="M1.46894 137.404C6.0911 141.126 14.5223 136.47 19.7074 131.423C24.8925 126.376 24.163 117.369 17.7391 113.139C11.3152 108.91 3.8812 109.456 -0.654533 115.026C-5.19026 120.596 -3.15323 133.682 1.46894 137.404Z" fill="#FFD900"/>
<path d="M71.7154 70.0422C75.5876 73.5685 81.1037 72.7946 85.0451 68.6681C88.9865 64.5416 88.1961 58.0853 83.6253 55.4169C79.0545 52.7485 74.0143 52.8434 70.2956 56.791C66.577 60.7386 67.8432 66.5159 71.7154 70.0422Z" fill="#F0C933"/>
<path d="M81.5548 78.3892C82.8263 79.5471 84.6376 79.293 85.9318 77.938C87.2259 76.583 86.9664 74.463 85.4656 73.5869C83.9647 72.7107 82.3097 72.7418 81.0887 74.0381C79.8676 75.3343 80.2834 77.2313 81.5548 78.3892Z" fill="#F0C933"/>
<path d="M-5.8334 38.5461C-1.96121 42.0724 3.55489 41.2985 7.49627 37.172C11.4377 33.0455 10.6473 26.5892 6.0765 23.9208C1.50568 21.2524 -3.53449 21.3473 -7.25318 25.2949C-10.9719 29.2425 -9.70558 35.0198 -5.8334 38.5461Z" fill="black"/>
<path d="M66.3595 100.564C67.631 101.722 69.4423 101.468 70.7364 100.113C72.0306 98.7578 71.7711 96.6379 70.2702 95.7617C68.7694 94.8855 67.1144 94.9166 65.8933 96.2129C64.6723 97.5091 65.0881 99.4061 66.3595 100.564Z" fill="#FFD900"/>
<path d="M88.901 13.5471C92.7732 17.0734 98.2893 16.2995 102.231 12.173C106.172 8.04646 105.382 1.59016 100.811 -1.07823C96.2401 -3.74661 91.1999 -3.65176 87.4812 0.295856C83.7625 4.24347 85.0288 10.0208 88.901 13.5471Z" fill="#FFD900"/>
<path d="M81.6652 11.7864C93.9488 21.6779 93.9562 37.9126 85.8958 51.8136C77.8355 65.7146 64.1555 78.5107 54.6117 90.2304C45.0679 101.95 27.43 104.962 14.3596 94.4374C1.28915 83.9123 -0.746095 65.0962 10.1289 54.4102C21.0039 43.7242 29.779 27.6116 41.4131 15.9935C53.0471 4.37532 69.3816 1.89498 81.6652 11.7864Z" fill="#0F0F0F"/>
<path d="M19.9784 8.70614C25.2088 13.4693 32.6596 12.4239 37.9834 6.85008C43.3072 1.27623 42.2397 -7.44462 36.0657 -11.0489C29.8916 -14.6532 23.0837 -14.5251 18.0607 -9.19288C13.0377 -3.86066 14.7481 3.94299 19.9784 8.70614Z" fill="#181818"/>
<path d="M-53.2809 183.364C-38.948 196.416 -18.5302 193.552 -3.94118 178.277C10.6478 163.003 7.7224 139.105 -9.19647 129.228C-26.1153 119.351 -44.7715 119.702 -58.5361 134.314C-72.3008 148.926 -67.6137 170.311 -53.2809 183.364Z" fill="#FFD900"/>
<path d="M84.391 157.519C98.7239 170.572 119.142 167.707 133.731 152.433C148.32 137.158 145.394 113.26 128.475 103.383C111.557 93.5065 92.9004 93.8576 79.1357 108.47C65.371 123.082 70.0581 144.466 84.391 157.519Z" fill="#0F0F0F"/>
<path d="M22.5773 -76.1778C34.8609 -66.2864 36.755 -48.3656 26.808 -36.1507C16.8609 -23.9357 3.72905 -10.7274 -4.47614 2.2661C-12.6813 15.2596 -33.6532 17.8407 -44.7283 6.47313C-55.8034 -4.8944 -60.0515 -19.9324 -48.9589 -33.554C-37.8663 -47.1757 -28.5747 -58.5858 -17.6748 -71.9708C-6.77492 -85.3558 10.2937 -86.0693 22.5773 -76.1778Z" fill="#FFD900"/>
<path d="M225.831 106.976V89.5439H233.766C237.33 89.5439 239.112 91.1024 239.112 94.2192C239.112 96.327 237.725 98.0726 234.95 99.4561L240.479 107H236.402L231.092 99.395V97.918C234.185 97.389 235.731 96.1886 235.731 94.3169C235.731 93.0311 235.007 92.3882 233.558 92.3882H229.127V106.976H225.831ZM247.12 94.1826C251.01 94.1826 252.955 96.1683 252.955 100.14C252.955 100.669 252.918 101.198 252.845 101.727H244.337C244.337 103.533 245.663 104.437 248.316 104.437C249.61 104.437 250.904 104.314 252.198 104.07V106.634C251.067 106.878 249.692 107 248.072 107C243.425 107 241.102 104.815 241.102 100.445C241.102 96.27 243.108 94.1826 247.12 94.1826ZM244.337 99.4805H249.806V99.3828C249.806 97.6087 248.91 96.7217 247.12 96.7217C245.411 96.7217 244.483 97.6413 244.337 99.4805ZM255.384 106.39V103.704C256.808 104.274 258.452 104.559 260.316 104.559C261.708 104.559 262.403 104.111 262.403 103.216C262.403 102.361 261.935 101.934 261 101.934H258.68C256.076 101.934 254.774 100.652 254.774 98.0889C254.774 95.4033 256.674 94.0605 260.475 94.0605C262.086 94.0605 263.604 94.3047 265.028 94.793V97.4785C263.604 96.9089 262.057 96.624 260.389 96.624C258.639 96.624 257.765 97.0716 257.765 97.9668C257.765 98.8213 258.273 99.2485 259.291 99.2485H261.366C264.214 99.2485 265.638 100.53 265.638 103.094C265.638 105.779 263.823 107.122 260.194 107.122C258.412 107.122 256.808 106.878 255.384 106.39ZM273.316 94.1826C277.206 94.1826 279.151 96.1683 279.151 100.14C279.151 100.669 279.115 101.198 279.042 101.727H270.533C270.533 103.533 271.86 104.437 274.513 104.437C275.807 104.437 277.101 104.314 278.395 104.07V106.634C277.263 106.878 275.888 107 274.269 107C269.622 107 267.298 104.815 267.298 100.445C267.298 96.27 269.304 94.1826 273.316 94.1826ZM270.533 99.4805H276.002V99.3828C276.002 97.6087 275.107 96.7217 273.316 96.7217C271.607 96.7217 270.68 97.6413 270.533 99.4805ZM281.397 92.1074H283.79L284.278 94.1826H287.501V96.7461H284.632V102.642C284.632 103.838 285.149 104.437 286.183 104.437H287.501V107H284.62C282.472 107 281.397 105.848 281.397 103.545V92.1074ZM298.438 103.655C299.244 104.095 300.111 104.314 301.039 104.314C302.967 104.314 303.932 102.959 303.932 100.25C303.932 97.9465 302.866 96.7949 300.733 96.7949C299.814 96.7949 299.049 96.8519 298.438 96.9658V103.655ZM295.204 94.7075C296.904 94.3576 298.703 94.1826 300.599 94.1826C304.953 94.1826 307.13 96.2131 307.13 100.274C307.13 104.758 305.104 107 301.051 107C300.188 107 299.317 106.797 298.438 106.39V111.639H295.204V94.7075ZM308.973 103.008C308.973 100.461 310.829 99.1875 314.54 99.1875C315.41 99.1875 316.281 99.2689 317.152 99.4316V98.4673C317.152 97.3198 316.326 96.7461 314.674 96.7461C313.274 96.7461 311.72 96.9495 310.011 97.3564V94.793C311.72 94.3861 313.274 94.1826 314.674 94.1826C318.482 94.1826 320.387 95.5905 320.387 98.4062V107H318.507L317.359 105.853C316.244 106.618 315.016 107 313.673 107C310.54 107 308.973 105.669 308.973 103.008ZM317.152 101.629C316.338 101.466 315.467 101.385 314.54 101.385C312.985 101.385 312.208 101.914 312.208 102.972C312.208 104.111 312.859 104.681 314.161 104.681C315.235 104.681 316.232 104.347 317.152 103.68V101.629ZM323.451 106.39V103.704C324.875 104.274 326.519 104.559 328.382 104.559C329.774 104.559 330.47 104.111 330.47 103.216C330.47 102.361 330.002 101.934 329.066 101.934H326.747C324.142 101.934 322.84 100.652 322.84 98.0889C322.84 95.4033 324.741 94.0605 328.541 94.0605C330.152 94.0605 331.67 94.3047 333.094 94.793V97.4785C331.67 96.9089 330.124 96.624 328.456 96.624C326.706 96.624 325.831 97.0716 325.831 97.9668C325.831 98.8213 326.34 99.2485 327.357 99.2485H329.432C332.28 99.2485 333.705 100.53 333.705 103.094C333.705 105.779 331.89 107.122 328.26 107.122C326.478 107.122 324.875 106.878 323.451 106.39ZM335.975 106.39V103.704C337.399 104.274 339.043 104.559 340.907 104.559C342.298 104.559 342.994 104.111 342.994 103.216C342.994 102.361 342.526 101.934 341.59 101.934H339.271C336.667 101.934 335.365 100.652 335.365 98.0889C335.365 95.4033 337.265 94.0605 341.065 94.0605C342.677 94.0605 344.194 94.3047 345.619 94.793V97.4785C344.194 96.9089 342.648 96.624 340.98 96.624C339.23 96.624 338.355 97.0716 338.355 97.9668C338.355 98.8213 338.864 99.2485 339.881 99.2485H341.957C344.805 99.2485 346.229 100.53 346.229 103.094C346.229 105.779 344.414 107.122 340.785 107.122C339.002 107.122 337.399 106.878 335.975 106.39ZM347.401 94.1826H350.66L352.32 103.106L355.287 94.1826H358.058L361.256 103.106L362.696 94.1826H366.065L362.721 107H359.681L356.666 97.9058L353.614 107H350.526L347.401 94.1826ZM370.655 100.542C370.655 103.22 371.693 104.559 373.768 104.559C375.843 104.559 376.881 103.22 376.881 100.542C376.881 97.9302 375.843 96.624 373.768 96.624C371.693 96.624 370.655 97.9302 370.655 100.542ZM367.42 100.591C367.42 96.2944 369.536 94.146 373.768 94.146C378 94.146 380.116 96.2944 380.116 100.591C380.116 104.88 378 107.024 373.768 107.024C369.553 107.024 367.437 104.88 367.42 100.591ZM382.557 107V94.1826H385.06L385.462 95.8184C386.585 94.7279 387.774 94.1826 389.027 94.1826V96.7949C387.822 96.7949 386.744 97.2954 385.792 98.2964V107H382.557ZM398.976 97.5273C398.308 97.0879 397.47 96.8682 396.461 96.8682C394.451 96.8682 393.446 97.9953 393.446 100.25C393.446 102.927 394.492 104.266 396.583 104.266C397.429 104.266 398.227 104.148 398.976 103.912V97.5273ZM402.21 106.231C400.249 106.744 398.333 107 396.461 107C392.319 107 390.248 104.778 390.248 100.335C390.248 96.2334 392.274 94.1826 396.327 94.1826C397.189 94.1826 398.072 94.3861 398.976 94.793V89.5439H402.21V106.231ZM225.526 136V123.183H228.028L228.431 125.062C229.66 123.809 231.06 123.183 232.63 123.183C235.666 123.183 237.184 124.761 237.184 127.919V136H233.949V127.919C233.949 126.503 233.245 125.795 231.837 125.795C230.787 125.795 229.762 126.214 228.761 127.052V136H225.526ZM242.872 129.542C242.872 132.22 243.91 133.559 245.985 133.559C248.06 133.559 249.098 132.22 249.098 129.542C249.098 126.93 248.06 125.624 245.985 125.624C243.91 125.624 242.872 126.93 242.872 129.542ZM239.637 129.591C239.637 125.294 241.753 123.146 245.985 123.146C250.217 123.146 252.333 125.294 252.333 129.591C252.333 133.88 250.217 136.024 245.985 136.024C241.769 136.024 239.653 133.88 239.637 129.591ZM254.591 121.107H256.983L257.472 123.183H260.694V125.746H257.826V131.642C257.826 132.838 258.342 133.437 259.376 133.437H260.694V136H257.813C255.665 136 254.591 134.848 254.591 132.545V121.107ZM266.139 118.544V121.107H262.904V118.544H266.139ZM266.139 123.183V136H262.904V123.183H266.139ZM280.323 123.183V136H277.088V125.624H272.438V136H269.203V122.56C269.203 119.297 271.123 117.665 274.964 117.665C276.34 117.665 277.719 117.95 279.103 118.52V121.083C277.849 120.513 276.547 120.229 275.196 120.229C273.357 120.229 272.438 120.973 272.438 122.462V123.183H280.323ZM292.848 135.634C291.79 135.878 290.691 136 289.552 136C284.994 136 282.716 133.782 282.716 129.347C282.716 125.237 284.994 123.183 289.552 123.183C290.691 123.183 291.79 123.305 292.848 123.549V126.112C291.79 125.868 290.772 125.746 289.796 125.746C287.232 125.746 285.951 126.946 285.951 129.347C285.951 132.073 287.232 133.437 289.796 133.437C290.772 133.437 291.79 133.314 292.848 133.07V135.634ZM294.374 132.008C294.374 129.461 296.229 128.188 299.94 128.188C300.811 128.188 301.681 128.269 302.552 128.432V127.467C302.552 126.32 301.726 125.746 300.074 125.746C298.674 125.746 297.12 125.95 295.411 126.356V123.793C297.12 123.386 298.674 123.183 300.074 123.183C303.883 123.183 305.787 124.59 305.787 127.406V136H303.907L302.76 134.853C301.645 135.618 300.416 136 299.073 136C295.94 136 294.374 134.669 294.374 132.008ZM302.552 130.629C301.738 130.466 300.868 130.385 299.94 130.385C298.386 130.385 297.608 130.914 297.608 131.972C297.608 133.111 298.259 133.681 299.562 133.681C300.636 133.681 301.633 133.347 302.552 132.68V130.629ZM308.668 121.107H311.061L311.549 123.183H314.771V125.746H311.903V131.642C311.903 132.838 312.42 133.437 313.453 133.437H314.771V136H311.891C309.742 136 308.668 134.848 308.668 132.545V121.107ZM320.216 118.544V121.107H316.981V118.544H320.216ZM320.216 123.183V136H316.981V123.183H320.216ZM325.904 129.542C325.904 132.22 326.942 133.559 329.017 133.559C331.092 133.559 332.13 132.22 332.13 129.542C332.13 126.93 331.092 125.624 329.017 125.624C326.942 125.624 325.904 126.93 325.904 129.542ZM322.669 129.591C322.669 125.294 324.785 123.146 329.017 123.146C333.249 123.146 335.365 125.294 335.365 129.591C335.365 133.88 333.249 136.024 329.017 136.024C324.802 136.024 322.686 133.88 322.669 129.591ZM337.806 136V123.183H340.309L340.711 125.062C341.94 123.809 343.34 123.183 344.911 123.183C347.946 123.183 349.464 124.761 349.464 127.919V136H346.229V127.919C346.229 126.503 345.525 125.795 344.117 125.795C343.067 125.795 342.042 126.214 341.041 127.052V136H337.806Z" fill="white"/>
</g>
<defs>
<clipPath id="clip0_4601_5908">
<rect width="642" height="246" rx="10" fill="white"/>
</clipPath>
</defs>
</svg>
