<svg width="642" height="246" viewBox="0 0 642 246" fill="none" xmlns="http://www.w3.org/2000/svg">
<g clip-path="url(#clip0_4596_4820)">
<rect width="642" height="246" rx="10" fill="black"/>
<path d="M506.983 204.173C532.066 227.015 567.797 222.002 593.328 195.272C618.858 168.542 613.739 126.721 584.131 109.436C554.523 92.1515 521.875 92.766 497.786 118.337C473.698 143.908 481.901 181.331 506.983 204.173Z" fill="#181818"/>
<path d="M650.442 84.0448C663.976 91.4217 680.727 92.0772 690.65 79.8926C700.572 67.708 698.658 49.8118 686.374 39.9203C674.091 30.0289 657.007 34.7176 646.167 44.0725C635.326 53.4274 636.908 76.6678 650.442 84.0448Z" fill="#FFD900"/>
<path d="M700.441 166.957C717.279 180.517 717.292 202.768 706.245 221.82C695.199 240.872 676.45 258.409 663.37 274.471C650.29 290.533 626.115 294.66 608.198 280.232C590.281 265.804 587.489 240.014 602.393 225.369C617.298 210.724 629.324 188.641 645.269 172.718C661.214 156.796 683.603 153.398 700.441 166.957Z" fill="#181818"/>
<path d="M474.982 118.603C488.408 129.415 506.64 126.969 517.032 114.208C527.423 101.448 525.746 80.3571 512.612 72.3932C499.478 64.4292 480.134 61.3978 470.562 76.7881C460.991 92.1784 461.555 107.791 474.982 118.603Z" fill="#0F0F0F"/>
<path d="M516.182 216.131C520.441 219.56 526.225 218.782 529.522 214.733C532.82 210.684 532.289 203.993 528.123 201.467C523.957 198.941 517.821 197.981 514.783 202.865C511.746 207.748 511.924 212.701 516.182 216.131Z" fill="#0F0F0F"/>
<path d="M458.86 78.8581C461.656 81.1101 465.455 80.5996 467.62 77.9404C469.786 75.2812 469.437 70.8871 466.701 69.2284C463.966 67.5698 459.936 66.9391 457.941 70.1461C455.946 73.3532 456.063 76.6061 458.86 78.8581Z" fill="#FFD900"/>
<path d="M535.222 203.521C533.607 204.122 533.013 205.842 533.639 207.604C534.266 209.366 536.283 210.098 537.75 209.166C539.216 208.234 539.94 206.754 539.333 205.083C538.725 203.413 536.837 202.92 535.222 203.521Z" fill="#FFD900"/>
<path d="M524.481 118.969C527.277 121.221 531.076 120.711 533.241 118.052C535.407 115.393 535.058 110.998 532.322 109.34C529.587 107.681 525.557 107.05 523.562 110.257C521.567 113.465 521.684 116.717 524.481 118.969Z" fill="#FFD900"/>
<path d="M536.982 119.577C538.253 120.6 539.98 120.368 540.964 119.16C541.948 117.951 541.79 115.954 540.546 115.2C539.303 114.446 537.471 114.159 536.564 115.617C535.657 117.075 535.711 118.553 536.982 119.577Z" fill="#0F0F0F"/>
<path d="M583.404 240.802C588.027 244.524 596.458 239.868 601.643 234.821C606.828 229.774 606.099 220.768 599.675 216.538C593.251 212.308 585.817 212.855 581.281 218.425C576.745 223.995 578.782 237.08 583.404 240.802Z" fill="#FFD900"/>
<path d="M501.232 179.555C511.461 188.871 526.033 186.826 536.445 175.925C546.857 165.024 544.77 147.968 532.695 140.919C520.62 133.87 507.305 134.121 497.481 144.549C487.658 154.978 491.003 170.24 501.232 179.555Z" fill="#F0C933"/>
<path d="M533.531 186.167C534.803 187.324 536.614 187.07 537.908 185.715C539.203 184.36 538.943 182.24 537.442 181.364C535.941 180.488 534.286 180.519 533.065 181.815C531.844 183.112 532.26 185.009 533.531 186.167Z" fill="#F0C933"/>
<path d="M538.349 178.464C538.984 179.043 539.89 178.916 540.537 178.239C541.184 177.561 541.055 176.501 540.304 176.063C539.554 175.625 538.726 175.64 538.116 176.289C537.505 176.937 537.713 177.885 538.349 178.464Z" fill="#F0C933"/>
<path d="M576.102 141.945C579.974 145.471 585.49 144.697 589.432 140.57C593.373 136.444 592.583 129.988 588.012 127.319C583.441 124.651 578.401 124.746 574.682 128.693C570.964 132.641 572.23 138.418 576.102 141.945Z" fill="black"/>
<path d="M469.903 132.919C471.174 134.077 472.985 133.823 474.279 132.468C475.574 131.113 475.314 128.993 473.813 128.117C472.312 127.241 470.657 127.272 469.436 128.568C468.215 129.865 468.631 131.762 469.903 132.919Z" fill="#FFD900"/>
<path d="M573.906 146.473C573.031 147.951 573.657 149.66 575.259 150.637C576.861 151.614 578.893 150.921 579.442 149.279C579.992 147.637 579.617 146.033 578.089 145.115C576.56 144.197 574.78 144.996 573.906 146.473Z" fill="#FFD900"/>
<path d="M442.873 253.996C458.023 266.195 482.205 263.374 497.663 248.32C513.122 233.266 510.976 206.431 491.855 193.846C472.734 181.262 450.591 182.913 437.065 199.523C423.539 216.133 427.723 241.797 442.873 253.996Z" fill="#0F0F0F"/>
<path d="M663.601 115.185C675.884 125.076 675.892 141.311 667.831 155.212C659.771 169.113 646.091 181.909 636.547 193.629C627.003 205.348 609.366 208.361 596.295 197.836C583.225 187.311 581.189 168.495 592.064 157.809C602.939 147.123 611.715 131.01 623.349 119.392C634.983 107.774 651.317 105.293 663.601 115.185Z" fill="#0F0F0F"/>
<path d="M601.914 112.105C607.144 116.868 614.595 115.822 619.919 110.249C625.243 104.675 624.175 95.9538 618.001 92.3495C611.827 88.7452 605.019 88.8733 599.996 94.2056C594.973 99.5378 596.684 107.341 601.914 112.105Z" fill="#181818"/>
<path d="M528.655 286.762C542.988 299.815 563.405 296.95 577.994 281.676C592.583 266.402 589.658 242.504 572.739 232.627C555.82 222.75 537.164 223.101 523.399 237.713C509.635 252.325 514.322 273.709 528.655 286.762Z" fill="#FFD900"/>
<path d="M666.327 260.917C680.659 273.97 701.077 271.105 715.666 255.831C730.255 240.557 727.33 216.659 710.411 206.782C693.492 196.905 674.836 197.256 661.071 211.868C647.307 226.48 651.994 247.865 666.327 260.917Z" fill="#0F0F0F"/>
<path d="M617.262 73.6138C618.6 74.3422 620.256 74.4055 621.238 73.1993C622.22 71.9931 622.033 70.223 620.819 69.2457C619.606 68.2684 617.916 68.7338 616.843 69.6602C615.77 70.5865 615.925 72.8853 617.262 73.6138Z" fill="#FFD900"/>
<path d="M604.513 27.2206C616.796 37.1121 618.691 55.0328 608.744 67.2478C598.796 79.4627 585.665 92.671 577.459 105.665C569.254 118.658 548.282 121.239 537.207 109.872C526.132 98.504 521.884 83.4661 532.977 69.8444C544.069 56.2228 553.361 44.8126 564.261 31.4276C575.161 18.0426 592.229 17.3292 604.513 27.2206Z" fill="#FFD900"/>
<path d="M-74.9524 100.775C-49.8699 123.617 -14.1388 118.604 11.392 91.8739C36.9227 65.1441 31.8032 23.3225 2.19523 6.03778C-27.4128 -11.247 -60.061 -10.6325 -84.1492 14.9386C-108.237 40.5097 -100.035 77.9327 -74.9524 100.775Z" fill="#181818"/>
<path d="M68.5066 -19.3537C82.0404 -11.9767 98.7917 -11.3212 108.714 -23.5058C118.636 -35.6904 116.722 -53.5866 104.439 -63.4781C92.1551 -73.3695 75.0719 -68.6809 64.2313 -59.3259C53.3906 -49.971 54.9729 -26.7306 68.5066 -19.3537Z" fill="#FFD900"/>
<path d="M118.506 63.559C135.344 77.1181 135.356 99.3698 124.31 118.422C113.264 137.474 94.5143 155.011 81.4344 171.073C68.3546 187.135 44.179 191.261 26.2621 176.834C8.34531 162.406 5.55311 136.616 20.4579 121.971C35.3626 107.326 47.3883 85.2425 63.3334 69.3199C79.2784 53.3973 101.667 49.9999 118.506 63.559Z" fill="#181818"/>
<path d="M1.46894 137.404C6.0911 141.126 14.5223 136.47 19.7074 131.423C24.8925 126.376 24.163 117.369 17.7391 113.139C11.3152 108.91 3.8812 109.456 -0.654533 115.026C-5.19026 120.596 -3.15323 133.682 1.46894 137.404Z" fill="#FFD900"/>
<path d="M71.7154 70.0422C75.5876 73.5685 81.1037 72.7946 85.0451 68.6681C88.9865 64.5416 88.1961 58.0853 83.6253 55.4169C79.0545 52.7485 74.0143 52.8434 70.2956 56.791C66.577 60.7386 67.8432 66.5159 71.7154 70.0422Z" fill="#F0C933"/>
<path d="M81.5548 78.3892C82.8263 79.5471 84.6376 79.293 85.9318 77.938C87.2259 76.583 86.9664 74.463 85.4656 73.5869C83.9647 72.7107 82.3097 72.7418 81.0887 74.0381C79.8676 75.3343 80.2834 77.2313 81.5548 78.3892Z" fill="#F0C933"/>
<path d="M-5.8334 38.5461C-1.96121 42.0724 3.55489 41.2985 7.49627 37.172C11.4377 33.0455 10.6473 26.5892 6.0765 23.9208C1.50568 21.2524 -3.53449 21.3473 -7.25318 25.2949C-10.9719 29.2425 -9.70558 35.0198 -5.8334 38.5461Z" fill="black"/>
<path d="M66.3595 100.564C67.631 101.722 69.4423 101.468 70.7364 100.113C72.0306 98.7578 71.7711 96.6379 70.2702 95.7617C68.7694 94.8855 67.1144 94.9166 65.8933 96.2129C64.6723 97.5091 65.0881 99.4061 66.3595 100.564Z" fill="#FFD900"/>
<path d="M88.901 13.5471C92.7732 17.0734 98.2893 16.2995 102.231 12.173C106.172 8.04646 105.382 1.59016 100.811 -1.07823C96.2401 -3.74661 91.1999 -3.65176 87.4812 0.295856C83.7625 4.24347 85.0288 10.0208 88.901 13.5471Z" fill="#FFD900"/>
<path d="M81.6652 11.7864C93.9488 21.6779 93.9562 37.9126 85.8958 51.8136C77.8355 65.7146 64.1555 78.5107 54.6117 90.2304C45.0679 101.95 27.43 104.962 14.3596 94.4374C1.28915 83.9123 -0.746095 65.0962 10.1289 54.4102C21.0039 43.7242 29.779 27.6116 41.4131 15.9935C53.0471 4.37532 69.3816 1.89498 81.6652 11.7864Z" fill="#0F0F0F"/>
<path d="M19.9784 8.70614C25.2088 13.4693 32.6596 12.4239 37.9834 6.85008C43.3072 1.27623 42.2397 -7.44462 36.0657 -11.0489C29.8916 -14.6532 23.0837 -14.5251 18.0607 -9.19288C13.0377 -3.86066 14.7481 3.94299 19.9784 8.70614Z" fill="#181818"/>
<path d="M-53.2809 183.364C-38.948 196.416 -18.5302 193.552 -3.94118 178.277C10.6478 163.003 7.7224 139.105 -9.19647 129.228C-26.1153 119.351 -44.7715 119.702 -58.5361 134.314C-72.3008 148.926 -67.6137 170.311 -53.2809 183.364Z" fill="#FFD900"/>
<path d="M84.391 157.519C98.7239 170.572 119.142 167.707 133.731 152.433C148.32 137.158 145.394 113.26 128.475 103.383C111.557 93.5065 92.9004 93.8576 79.1357 108.47C65.371 123.082 70.0581 144.466 84.391 157.519Z" fill="#0F0F0F"/>
<path d="M22.5773 -76.1778C34.8609 -66.2864 36.755 -48.3656 26.808 -36.1507C16.8609 -23.9357 3.72905 -10.7274 -4.47614 2.2661C-12.6813 15.2596 -33.6532 17.8407 -44.7283 6.47313C-55.8034 -4.8944 -60.0515 -19.9324 -48.9589 -33.554C-37.8663 -47.1757 -28.5747 -58.5858 -17.6748 -71.9708C-6.77492 -85.3558 10.2937 -86.0693 22.5773 -76.1778Z" fill="#FFD900"/>
<path d="M181.427 90.5439H184.711L186.579 103.081L191.12 90.5439H194.232L198.48 102.592L200.458 90.5439H203.644L200.36 108H197.284L192.487 94.3037L187.335 108H184.296L181.427 90.5439ZM211.005 95.1826C214.895 95.1826 216.84 97.1683 216.84 101.14C216.84 101.669 216.803 102.198 216.73 102.727H208.222C208.222 104.533 209.548 105.437 212.201 105.437C213.495 105.437 214.789 105.314 216.083 105.07V107.634C214.952 107.878 213.576 108 211.957 108C207.31 108 204.987 105.815 204.987 101.445C204.987 97.27 206.993 95.1826 211.005 95.1826ZM208.222 100.48H213.69V100.383C213.69 98.6087 212.795 97.7217 211.005 97.7217C209.296 97.7217 208.368 98.6413 208.222 100.48ZM222.504 90.5439V108H219.269V90.5439H222.504ZM235.028 107.634C233.97 107.878 232.872 108 231.732 108C227.175 108 224.896 105.782 224.896 101.347C224.896 97.2375 227.175 95.1826 231.732 95.1826C232.872 95.1826 233.97 95.3047 235.028 95.5488V98.1123C233.97 97.8682 232.953 97.7461 231.977 97.7461C229.413 97.7461 228.131 98.9465 228.131 101.347C228.131 104.073 229.413 105.437 231.977 105.437C232.953 105.437 233.97 105.314 235.028 105.07V107.634ZM239.789 101.542C239.789 104.22 240.827 105.559 242.902 105.559C244.977 105.559 246.015 104.22 246.015 101.542C246.015 98.9302 244.977 97.624 242.902 97.624C240.827 97.624 239.789 98.9302 239.789 101.542ZM236.554 101.591C236.554 97.2944 238.67 95.146 242.902 95.146C247.134 95.146 249.25 97.2944 249.25 101.591C249.25 105.88 247.134 108.024 242.902 108.024C238.686 108.024 236.57 105.88 236.554 101.591ZM251.691 108V95.1826H254.193L254.572 97.0381C255.719 95.8011 257.099 95.1826 258.71 95.1826C260.321 95.1826 261.424 95.7686 262.018 96.9404C263.328 95.7686 264.7 95.1826 266.132 95.1826C269.078 95.1826 270.551 96.8062 270.551 100.053V108H267.316V99.9312C267.316 98.507 266.673 97.7949 265.387 97.7949C264.427 97.7949 263.503 98.2262 262.616 99.0889V108H259.381V99.9678C259.381 98.5192 258.787 97.7949 257.599 97.7949C256.655 97.7949 255.764 98.2262 254.926 99.0889V108H251.691ZM279.022 95.1826C282.912 95.1826 284.857 97.1683 284.857 101.14C284.857 101.669 284.821 102.198 284.748 102.727H276.239C276.239 104.533 277.566 105.437 280.219 105.437C281.513 105.437 282.807 105.314 284.101 105.07V107.634C282.969 107.878 281.594 108 279.975 108C275.328 108 273.004 105.815 273.004 101.445C273.004 97.27 275.01 95.1826 279.022 95.1826ZM276.239 100.48H281.708V100.383C281.708 98.6087 280.813 97.7217 279.022 97.7217C277.313 97.7217 276.386 98.6413 276.239 100.48ZM292.597 93.1074H294.989L295.478 95.1826H298.7V97.7461H295.832V103.642C295.832 104.838 296.348 105.437 297.382 105.437H298.7V108H295.819C293.671 108 292.597 106.848 292.597 104.545V93.1074ZM303.534 101.542C303.534 104.22 304.572 105.559 306.647 105.559C308.722 105.559 309.76 104.22 309.76 101.542C309.76 98.9302 308.722 97.624 306.647 97.624C304.572 97.624 303.534 98.9302 303.534 101.542ZM300.299 101.591C300.299 97.2944 302.415 95.146 306.647 95.146C310.879 95.146 312.995 97.2944 312.995 101.591C312.995 105.88 310.879 108.024 306.647 108.024C302.431 108.024 300.316 105.88 300.299 101.591ZM332.648 90.5439V93.3516H327.643V108H324.408V93.3516H319.403V90.5439H332.648ZM345.722 95.1826V108H343.195L342.804 106.364C341.331 107.455 339.769 108 338.117 108C335.496 108 334.186 106.45 334.186 103.349V95.1826H337.421V103.264C337.421 104.68 338.039 105.388 339.276 105.388C340.326 105.388 341.396 104.969 342.487 104.13V95.1826H345.722ZM352.021 90.5439V108H348.786V90.5439H352.021ZM366.62 95.1826V108H364.093L363.703 106.364C362.23 107.455 360.667 108 359.015 108C356.395 108 355.084 106.45 355.084 103.349V95.1826H358.319V103.264C358.319 104.68 358.938 105.388 360.175 105.388C361.225 105.388 362.295 104.969 363.385 104.13V95.1826H366.62ZM372.919 104.655C373.725 105.095 374.591 105.314 375.519 105.314C377.448 105.314 378.412 103.959 378.412 101.25C378.412 98.9465 377.346 97.7949 375.214 97.7949C374.294 97.7949 373.529 97.8519 372.919 97.9658V104.655ZM369.684 95.7075C371.385 95.3576 373.183 95.1826 375.08 95.1826C379.433 95.1826 381.61 97.2131 381.61 101.274C381.61 105.758 379.584 108 375.531 108C374.669 108 373.798 107.797 372.919 107.39V112.639H369.684V95.7075ZM383.454 104.008C383.454 101.461 385.309 100.188 389.02 100.188C389.891 100.188 390.762 100.269 391.632 100.432V99.4673C391.632 98.3198 390.806 97.7461 389.154 97.7461C387.755 97.7461 386.2 97.9495 384.491 98.3564V95.793C386.2 95.3861 387.755 95.1826 389.154 95.1826C392.963 95.1826 394.867 96.5905 394.867 99.4062V108H392.987L391.84 106.853C390.725 107.618 389.496 108 388.153 108C385.02 108 383.454 106.669 383.454 104.008ZM391.632 102.629C390.819 102.466 389.948 102.385 389.02 102.385C387.466 102.385 386.688 102.914 386.688 103.972C386.688 105.111 387.34 105.681 388.642 105.681C389.716 105.681 390.713 105.347 391.632 104.68V102.629ZM396.405 95.1826H399.835L403.07 104.411L406.232 95.1826H409.601L404.279 108.378C403.335 110.706 401.825 112.362 399.75 113.347L398.188 111.137C399.62 110.511 400.661 109.489 401.312 108.073L396.405 95.1826Z" fill="white"/>
<path d="M188.554 133.225V134.25H183.427V137.531H188.314V138.557H183.427V143H182.162V133.225H188.554ZM191.329 135.822V143H190.064V135.822H191.329ZM191.329 133.225V134.421H190.064V133.225H191.329ZM193.523 143V135.822H194.378L194.604 136.738C195.337 136.128 196.144 135.822 197.023 135.822C198.814 135.822 199.71 136.713 199.71 138.495V143H198.445V138.475C198.445 137.408 197.914 136.875 196.853 136.875C196.128 136.875 195.44 137.178 194.788 137.784V143H193.523ZM201.426 140.833C201.426 139.361 202.396 138.625 204.338 138.625C204.962 138.625 205.587 138.671 206.211 138.762V138.085C206.211 137.26 205.566 136.848 204.276 136.848C203.538 136.848 202.782 136.962 202.007 137.189V136.164C202.782 135.936 203.538 135.822 204.276 135.822C206.409 135.822 207.476 136.565 207.476 138.051V143H206.765L206.327 142.289C205.612 142.763 204.832 143 203.989 143C202.28 143 201.426 142.278 201.426 140.833ZM204.338 139.65C203.24 139.65 202.69 140.038 202.69 140.812C202.69 141.587 203.123 141.975 203.989 141.975C204.864 141.975 205.605 141.742 206.211 141.277V139.787C205.587 139.696 204.962 139.65 204.338 139.65ZM209.533 143V135.822H210.388L210.613 136.738C211.347 136.128 212.154 135.822 213.033 135.822C214.824 135.822 215.72 136.713 215.72 138.495V143H214.455V138.475C214.455 137.408 213.924 136.875 212.862 136.875C212.138 136.875 211.45 137.178 210.798 137.784V143H209.533ZM223.178 142.795C222.585 142.932 221.947 143 221.264 143C218.712 143 217.436 141.758 217.436 139.274C217.436 136.973 218.712 135.822 221.264 135.822C221.947 135.822 222.585 135.891 223.178 136.027V137.053C222.585 136.916 221.924 136.848 221.195 136.848C219.532 136.848 218.7 137.657 218.7 139.274C218.7 141.075 219.532 141.975 221.195 141.975C221.924 141.975 222.585 141.906 223.178 141.77V142.795ZM226.192 135.822V143H224.928V135.822H226.192ZM226.192 133.225V134.421H224.928V133.225H226.192ZM228.045 140.833C228.045 139.361 229.016 138.625 230.957 138.625C231.581 138.625 232.206 138.671 232.83 138.762V138.085C232.83 137.26 232.185 136.848 230.896 136.848C230.157 136.848 229.401 136.962 228.626 137.189V136.164C229.401 135.936 230.157 135.822 230.896 135.822C233.028 135.822 234.095 136.565 234.095 138.051V143H233.384L232.946 142.289C232.231 142.763 231.451 143 230.608 143C228.899 143 228.045 142.278 228.045 140.833ZM230.957 139.65C229.859 139.65 229.31 140.038 229.31 140.812C229.31 141.587 229.743 141.975 230.608 141.975C231.483 141.975 232.224 141.742 232.83 141.277V139.787C232.206 139.696 231.581 139.65 230.957 139.65ZM237.485 133.225V143H236.221V133.225H237.485ZM242.961 142.658V141.564C243.804 141.838 244.656 141.975 245.518 141.975C246.661 141.975 247.233 141.633 247.233 140.949C247.233 140.311 246.835 139.992 246.037 139.992H245.012C243.462 139.992 242.688 139.286 242.688 137.873C242.688 136.506 243.683 135.822 245.675 135.822C246.532 135.822 247.382 135.936 248.225 136.164V137.258C247.382 136.984 246.532 136.848 245.675 136.848C244.481 136.848 243.884 137.189 243.884 137.873C243.884 138.511 244.26 138.83 245.012 138.83H246.037C247.678 138.83 248.498 139.536 248.498 140.949C248.498 142.316 247.505 143 245.518 143C244.656 143 243.804 142.886 242.961 142.658ZM251.13 139.384C251.13 141.111 251.848 141.975 253.283 141.975C254.719 141.975 255.437 141.111 255.437 139.384C255.437 137.693 254.719 136.848 253.283 136.848C251.848 136.848 251.13 137.693 251.13 139.384ZM249.865 139.411C249.865 137.019 251.005 135.822 253.283 135.822C255.562 135.822 256.701 137.019 256.701 139.411C256.701 141.799 255.562 142.993 253.283 142.993C251.014 142.993 249.874 141.799 249.865 139.411ZM259.743 133.225V143H258.479V133.225H259.743ZM268.056 135.822V143H267.188L266.969 142.084C266.098 142.695 265.223 143 264.344 143C262.694 143 261.869 142.109 261.869 140.327V135.822H263.134V140.348C263.134 141.414 263.662 141.947 264.72 141.947C265.444 141.947 266.135 141.644 266.791 141.038V135.822H268.056ZM270.113 134.66H270.906L271.18 135.822H273.121V136.848H271.378V140.97C271.378 141.64 271.667 141.975 272.246 141.975H273.121V143H271.918C270.715 143 270.113 142.355 270.113 141.065V134.66ZM276.136 135.822V143H274.871V135.822H276.136ZM276.136 133.225V134.421H274.871V133.225H276.136ZM279.253 139.384C279.253 141.111 279.971 141.975 281.406 141.975C282.842 141.975 283.56 141.111 283.56 139.384C283.56 137.693 282.842 136.848 281.406 136.848C279.971 136.848 279.253 137.693 279.253 139.384ZM277.988 139.411C277.988 137.019 279.128 135.822 281.406 135.822C283.685 135.822 284.824 137.019 284.824 139.411C284.824 141.799 283.685 142.993 281.406 142.993C279.137 142.993 277.997 141.799 277.988 139.411ZM286.533 143V135.822H287.388L287.613 136.738C288.347 136.128 289.154 135.822 290.033 135.822C291.824 135.822 292.72 136.713 292.72 138.495V143H291.455V138.475C291.455 137.408 290.924 136.875 289.862 136.875C289.138 136.875 288.45 137.178 287.798 137.784V143H286.533ZM301.155 135.822C303.197 135.822 304.218 136.832 304.218 138.851C304.218 139.138 304.197 139.445 304.156 139.773H299.118C299.118 141.241 299.975 141.975 301.688 141.975C302.504 141.975 303.229 141.883 303.862 141.701V142.727C303.229 142.909 302.459 143 301.552 143C299.086 143 297.854 141.776 297.854 139.329C297.854 136.991 298.954 135.822 301.155 135.822ZM299.118 138.721H303.001C302.974 137.463 302.358 136.834 301.155 136.834C299.879 136.834 299.2 137.463 299.118 138.721ZM304.895 135.822H306.262L308.319 141.448L310.363 135.822H311.73L308.812 143H307.636L304.895 135.822ZM315.716 135.822C317.757 135.822 318.778 136.832 318.778 138.851C318.778 139.138 318.758 139.445 318.717 139.773H313.679C313.679 141.241 314.535 141.975 316.249 141.975C317.065 141.975 317.789 141.883 318.423 141.701V142.727C317.789 142.909 317.019 143 316.112 143C313.647 143 312.414 141.776 312.414 139.329C312.414 136.991 313.515 135.822 315.716 135.822ZM313.679 138.721H317.562C317.534 137.463 316.919 136.834 315.716 136.834C314.44 136.834 313.761 137.463 313.679 138.721ZM320.48 143V135.822H321.335L321.561 136.738C322.189 136.128 322.946 135.822 323.83 135.822V136.875C322.973 136.875 322.278 137.178 321.745 137.784V143H320.48ZM324.247 135.822H325.621L327.651 141.428L329.75 135.822H331.09L328.109 143.212C327.581 144.515 326.788 145.329 325.73 145.652L325.245 144.757C326.047 144.406 326.631 143.834 326.995 143.041L324.247 135.822ZM331.493 135.822H332.771L334.043 141.448L335.909 135.822H337.051L339.047 141.448L340.195 135.822H341.535L339.662 143H338.507L336.449 137.634L334.494 143H333.312L331.493 135.822ZM342.807 143V133.225H344.071V136.602C344.682 136.082 345.427 135.822 346.307 135.822C348.098 135.822 348.993 136.713 348.993 138.495V143H347.729V138.475C347.729 137.408 347.198 136.875 346.136 136.875C345.411 136.875 344.723 137.178 344.071 137.784V143H342.807ZM354.011 135.822C356.052 135.822 357.073 136.832 357.073 138.851C357.073 139.138 357.053 139.445 357.012 139.773H351.974C351.974 141.241 352.83 141.975 354.544 141.975C355.36 141.975 356.084 141.883 356.718 141.701V142.727C356.084 142.909 355.314 143 354.407 143C351.942 143 350.709 141.776 350.709 139.329C350.709 136.991 351.81 135.822 354.011 135.822ZM351.974 138.721H355.856C355.829 137.463 355.214 136.834 354.011 136.834C352.735 136.834 352.056 137.463 351.974 138.721ZM358.775 143V135.822H359.63L359.855 136.738C360.484 136.128 361.241 135.822 362.125 135.822V136.875C361.268 136.875 360.573 137.178 360.04 137.784V143H358.775ZM366.356 135.822C368.398 135.822 369.419 136.832 369.419 138.851C369.419 139.138 369.398 139.445 369.357 139.773H364.319C364.319 141.241 365.176 141.975 366.89 141.975C367.705 141.975 368.43 141.883 369.063 141.701V142.727C368.43 142.909 367.66 143 366.753 143C364.287 143 363.055 141.776 363.055 139.329C363.055 136.991 364.155 135.822 366.356 135.822ZM364.319 138.721H368.202C368.175 137.463 367.56 136.834 366.356 136.834C365.08 136.834 364.401 137.463 364.319 138.721ZM372.557 141.735L371.531 144.709H370.267L371.292 141.735H372.557ZM376.836 140.833C376.836 139.361 377.807 138.625 379.748 138.625C380.372 138.625 380.997 138.671 381.621 138.762V138.085C381.621 137.26 380.976 136.848 379.687 136.848C378.948 136.848 378.192 136.962 377.417 137.189V136.164C378.192 135.936 378.948 135.822 379.687 135.822C381.819 135.822 382.886 136.565 382.886 138.051V143H382.175L381.737 142.289C381.022 142.763 380.243 143 379.399 143C377.69 143 376.836 142.278 376.836 140.833ZM379.748 139.65C378.65 139.65 378.101 140.038 378.101 140.812C378.101 141.587 378.534 141.975 379.399 141.975C380.274 141.975 381.015 141.742 381.621 141.277V139.787C380.997 139.696 380.372 139.65 379.748 139.65ZM384.943 143V135.822H385.798L386.023 136.738C386.757 136.128 387.564 135.822 388.443 135.822C390.234 135.822 391.13 136.713 391.13 138.495V143H389.865V138.475C389.865 137.408 389.334 136.875 388.272 136.875C387.548 136.875 386.86 137.178 386.208 137.784V143H384.943ZM392.333 135.822H393.707L395.737 141.428L397.836 135.822H399.176L396.195 143.212C395.667 144.515 394.874 145.329 393.816 145.652L393.331 144.757C394.133 144.406 394.716 143.834 395.081 143.041L392.333 135.822ZM399.579 135.822H400.857L402.129 141.448L403.995 135.822H405.137L407.133 141.448L408.281 135.822H409.621L407.748 143H406.593L404.535 137.634L402.58 143H401.397L399.579 135.822ZM410.893 143V133.225H412.157V136.602C412.768 136.082 413.513 135.822 414.393 135.822C416.184 135.822 417.079 136.713 417.079 138.495V143H415.814V138.475C415.814 137.408 415.284 136.875 414.222 136.875C413.497 136.875 412.809 137.178 412.157 137.784V143H410.893ZM422.097 135.822C424.138 135.822 425.159 136.832 425.159 138.851C425.159 139.138 425.139 139.445 425.098 139.773H420.06C420.06 141.241 420.916 141.975 422.63 141.975C423.446 141.975 424.17 141.883 424.804 141.701V142.727C424.17 142.909 423.4 143 422.493 143C420.028 143 418.795 141.776 418.795 139.329C418.795 136.991 419.896 135.822 422.097 135.822ZM420.06 138.721H423.942C423.915 137.463 423.3 136.834 422.097 136.834C420.821 136.834 420.142 137.463 420.06 138.721ZM426.861 143V135.822H427.716L427.941 136.738C428.57 136.128 429.327 135.822 430.211 135.822V136.875C429.354 136.875 428.659 137.178 428.126 137.784V143H426.861ZM434.442 135.822C436.484 135.822 437.505 136.832 437.505 138.851C437.505 139.138 437.484 139.445 437.443 139.773H432.405C432.405 141.241 433.262 141.975 434.976 141.975C435.791 141.975 436.516 141.883 437.149 141.701V142.727C436.516 142.909 435.746 143 434.839 143C432.373 143 431.141 141.776 431.141 139.329C431.141 136.991 432.241 135.822 434.442 135.822ZM432.405 138.721H436.288C436.261 137.463 435.646 136.834 434.442 136.834C433.166 136.834 432.487 137.463 432.405 138.721ZM440.643 141.735L439.617 144.709H438.353L439.378 141.735H440.643ZM181.684 156.833C181.684 155.361 182.654 154.625 184.596 154.625C185.22 154.625 185.844 154.671 186.469 154.762V154.085C186.469 153.26 185.824 152.848 184.534 152.848C183.796 152.848 183.039 152.962 182.265 153.189V152.164C183.039 151.936 183.796 151.822 184.534 151.822C186.667 151.822 187.733 152.565 187.733 154.051V159H187.022L186.585 158.289C185.869 158.763 185.09 159 184.247 159C182.538 159 181.684 158.278 181.684 156.833ZM184.596 155.65C183.497 155.65 182.948 156.038 182.948 156.812C182.948 157.587 183.381 157.975 184.247 157.975C185.122 157.975 185.863 157.742 186.469 157.277V155.787C185.844 155.696 185.22 155.65 184.596 155.65ZM189.791 159V151.822H190.646L190.871 152.738C191.605 152.128 192.411 151.822 193.291 151.822C195.082 151.822 195.978 152.713 195.978 154.495V159H194.713V154.475C194.713 153.408 194.182 152.875 193.12 152.875C192.396 152.875 191.707 153.178 191.056 153.784V159H189.791ZM202.854 153.285C202.344 153.039 201.761 152.916 201.104 152.916C199.66 152.916 198.938 153.684 198.938 155.22C198.938 157.038 199.66 157.947 201.104 157.947C201.761 157.947 202.344 157.858 202.854 157.681V153.285ZM204.119 158.569C203.249 158.856 202.175 159 200.899 159C198.762 159 197.693 157.756 197.693 155.268C197.693 152.971 198.828 151.822 201.098 151.822C201.717 151.822 202.303 151.936 202.854 152.164V149.225H204.119V158.569ZM209.246 156.833C209.246 155.361 210.217 154.625 212.158 154.625C212.783 154.625 213.407 154.671 214.031 154.762V154.085C214.031 153.26 213.386 152.848 212.097 152.848C211.358 152.848 210.602 152.962 209.827 153.189V152.164C210.602 151.936 211.358 151.822 212.097 151.822C214.229 151.822 215.296 152.565 215.296 154.051V159H214.585L214.147 158.289C213.432 158.763 212.653 159 211.81 159C210.101 159 209.246 158.278 209.246 156.833ZM212.158 155.65C211.06 155.65 210.511 156.038 210.511 156.812C210.511 157.587 210.944 157.975 211.81 157.975C212.685 157.975 213.425 157.742 214.031 157.277V155.787C213.407 155.696 212.783 155.65 212.158 155.65ZM217.354 159V151.822H218.208L218.434 152.738C219.167 152.128 219.974 151.822 220.854 151.822C222.645 151.822 223.54 152.713 223.54 154.495V159H222.275V154.475C222.275 153.408 221.744 152.875 220.683 152.875C219.958 152.875 219.27 153.178 218.618 153.784V159H217.354ZM224.743 151.822H226.117L228.147 157.428L230.246 151.822H231.586L228.605 159.212C228.077 160.515 227.284 161.329 226.227 161.652L225.741 160.757C226.543 160.406 227.127 159.834 227.491 159.041L224.743 151.822ZM232.775 150.66H233.568L233.842 151.822H235.783V152.848H234.04V156.97C234.04 157.64 234.329 157.975 234.908 157.975H235.783V159H234.58C233.377 159 232.775 158.355 232.775 157.065V150.66ZM238.798 151.822V159H237.533V151.822H238.798ZM238.798 149.225V150.421H237.533V149.225H238.798ZM240.992 159V151.822H241.847L242.059 152.725C242.747 152.123 243.496 151.822 244.308 151.822C245.347 151.822 246.055 152.15 246.434 152.807C247.213 152.15 248.004 151.822 248.806 151.822C250.455 151.822 251.28 152.731 251.28 154.55V159H250.016V154.481C250.016 153.41 249.564 152.875 248.662 152.875C247.988 152.875 247.356 153.185 246.769 153.805V159H245.504V154.502C245.504 153.417 245.057 152.875 244.164 152.875C243.453 152.875 242.817 153.185 242.257 153.805V159H240.992ZM256.298 151.822C258.34 151.822 259.36 152.832 259.36 154.851C259.36 155.138 259.34 155.445 259.299 155.773H254.261C254.261 157.241 255.118 157.975 256.831 157.975C257.647 157.975 258.371 157.883 259.005 157.701V158.727C258.371 158.909 257.601 159 256.694 159C254.229 159 252.996 157.776 252.996 155.329C252.996 152.991 254.097 151.822 256.298 151.822ZM254.261 154.721H258.144C258.116 153.463 257.501 152.834 256.298 152.834C255.022 152.834 254.343 153.463 254.261 154.721Z" fill="white" fill-opacity="0.6"/>
</g>
<defs>
<clipPath id="clip0_4596_4820">
<rect width="642" height="246" rx="10" fill="white"/>
</clipPath>
</defs>
</svg>
