<svg width="13" height="13" viewBox="0 0 13 13" fill="none" xmlns="http://www.w3.org/2000/svg">
<path d="M3.43169 5.53817V9.04897M3.43169 3.43169V3.43871M6.24033 9.04897V5.53817M9.04897 9.04897V6.94249C9.04897 6.57004 8.90102 6.21285 8.63765 5.94949C8.37429 5.68612 8.0171 5.53817 7.64465 5.53817C7.2722 5.53817 6.91501 5.68612 6.65165 5.94949C6.38828 6.21285 6.24033 6.57004 6.24033 6.94249M0.623047 2.02737C0.623047 1.65492 0.771002 1.29772 1.03436 1.03436C1.29772 0.771002 1.65492 0.623047 2.02737 0.623047H10.4533C10.8257 0.623047 11.1829 0.771002 11.4463 1.03436C11.7097 1.29772 11.8576 1.65492 11.8576 2.02737V10.4533C11.8576 10.8257 11.7097 11.1829 11.4463 11.4463C11.1829 11.7097 10.8257 11.8576 10.4533 11.8576H2.02737C1.65492 11.8576 1.29772 11.7097 1.03436 11.4463C0.771002 11.1829 0.623047 10.8257 0.623047 10.4533V2.02737Z" stroke="black" stroke-width="1.2" stroke-linecap="round" stroke-linejoin="round"/>
</svg>
