<svg width="642" height="246" viewBox="0 0 642 246" fill="none" xmlns="http://www.w3.org/2000/svg">
<g clip-path="url(#clip0_4601_5512)">
<rect width="642" height="246" rx="10" fill="black"/>
<path d="M506.983 204.173C532.066 227.015 567.797 222.002 593.328 195.272C618.858 168.542 613.739 126.721 584.131 109.436C554.523 92.1515 521.875 92.766 497.786 118.337C473.698 143.908 481.901 181.331 506.983 204.173Z" fill="#181818"/>
<path d="M650.442 84.0448C663.976 91.4217 680.727 92.0772 690.65 79.8926C700.572 67.708 698.658 49.8118 686.374 39.9203C674.091 30.0289 657.007 34.7176 646.167 44.0725C635.326 53.4274 636.908 76.6678 650.442 84.0448Z" fill="#FFD900"/>
<path d="M700.441 166.957C717.279 180.517 717.292 202.768 706.245 221.82C695.199 240.872 676.45 258.409 663.37 274.471C650.29 290.533 626.115 294.66 608.198 280.232C590.281 265.804 587.489 240.014 602.393 225.369C617.298 210.724 629.324 188.641 645.269 172.718C661.214 156.796 683.603 153.398 700.441 166.957Z" fill="#181818"/>
<path d="M474.982 118.603C488.408 129.415 506.64 126.969 517.032 114.208C527.423 101.448 525.746 80.3571 512.612 72.3932C499.478 64.4292 480.134 61.3978 470.562 76.7881C460.991 92.1784 461.555 107.791 474.982 118.603Z" fill="#0F0F0F"/>
<path d="M516.182 216.131C520.441 219.56 526.225 218.782 529.522 214.733C532.82 210.684 532.289 203.993 528.123 201.467C523.957 198.941 517.821 197.981 514.783 202.865C511.746 207.748 511.924 212.701 516.182 216.131Z" fill="#0F0F0F"/>
<path d="M458.86 78.8581C461.656 81.1101 465.455 80.5996 467.62 77.9404C469.786 75.2812 469.437 70.8871 466.701 69.2284C463.966 67.5698 459.936 66.9391 457.941 70.1461C455.946 73.3532 456.063 76.6061 458.86 78.8581Z" fill="#FFD900"/>
<path d="M535.222 203.521C533.607 204.122 533.013 205.842 533.639 207.604C534.266 209.366 536.283 210.098 537.75 209.166C539.216 208.234 539.94 206.754 539.333 205.083C538.725 203.413 536.837 202.92 535.222 203.521Z" fill="#FFD900"/>
<path d="M524.481 118.969C527.277 121.221 531.076 120.711 533.241 118.052C535.407 115.393 535.058 110.998 532.322 109.34C529.587 107.681 525.557 107.05 523.562 110.257C521.567 113.465 521.684 116.717 524.481 118.969Z" fill="#FFD900"/>
<path d="M536.982 119.577C538.253 120.6 539.98 120.368 540.964 119.16C541.948 117.951 541.79 115.954 540.546 115.2C539.303 114.446 537.471 114.159 536.564 115.617C535.657 117.075 535.711 118.553 536.982 119.577Z" fill="#0F0F0F"/>
<path d="M583.404 240.802C588.027 244.524 596.458 239.868 601.643 234.821C606.828 229.774 606.099 220.768 599.675 216.538C593.251 212.308 585.817 212.855 581.281 218.425C576.745 223.995 578.782 237.08 583.404 240.802Z" fill="#FFD900"/>
<path d="M501.232 179.555C511.461 188.871 526.033 186.826 536.445 175.925C546.857 165.024 544.77 147.968 532.695 140.919C520.62 133.87 507.305 134.121 497.481 144.549C487.658 154.978 491.003 170.24 501.232 179.555Z" fill="#F0C933"/>
<path d="M533.531 186.167C534.803 187.324 536.614 187.07 537.908 185.715C539.203 184.36 538.943 182.24 537.442 181.364C535.941 180.488 534.286 180.519 533.065 181.815C531.844 183.112 532.26 185.009 533.531 186.167Z" fill="#F0C933"/>
<path d="M538.349 178.464C538.984 179.043 539.89 178.916 540.537 178.239C541.184 177.561 541.055 176.501 540.304 176.063C539.554 175.625 538.726 175.64 538.116 176.289C537.505 176.937 537.713 177.885 538.349 178.464Z" fill="#F0C933"/>
<path d="M576.102 141.945C579.974 145.471 585.49 144.697 589.432 140.57C593.373 136.444 592.583 129.988 588.012 127.319C583.441 124.651 578.401 124.746 574.682 128.693C570.964 132.641 572.23 138.418 576.102 141.945Z" fill="black"/>
<path d="M469.903 132.919C471.174 134.077 472.985 133.823 474.279 132.468C475.574 131.113 475.314 128.993 473.813 128.117C472.312 127.241 470.657 127.272 469.436 128.568C468.215 129.865 468.631 131.762 469.903 132.919Z" fill="#FFD900"/>
<path d="M573.906 146.473C573.031 147.951 573.657 149.66 575.259 150.637C576.861 151.614 578.893 150.921 579.442 149.279C579.992 147.637 579.617 146.033 578.089 145.115C576.56 144.197 574.78 144.996 573.906 146.473Z" fill="#FFD900"/>
<path d="M442.873 253.996C458.023 266.195 482.205 263.374 497.663 248.32C513.122 233.266 510.976 206.431 491.855 193.846C472.734 181.262 450.591 182.913 437.065 199.523C423.539 216.133 427.723 241.797 442.873 253.996Z" fill="#0F0F0F"/>
<path d="M663.601 115.185C675.884 125.076 675.892 141.311 667.831 155.212C659.771 169.113 646.091 181.909 636.547 193.629C627.003 205.348 609.366 208.361 596.295 197.836C583.225 187.311 581.189 168.495 592.064 157.809C602.939 147.123 611.715 131.01 623.349 119.392C634.983 107.774 651.317 105.293 663.601 115.185Z" fill="#0F0F0F"/>
<path d="M601.914 112.105C607.144 116.868 614.595 115.822 619.919 110.249C625.243 104.675 624.175 95.9538 618.001 92.3495C611.827 88.7452 605.019 88.8733 599.996 94.2056C594.973 99.5378 596.684 107.341 601.914 112.105Z" fill="#181818"/>
<path d="M528.655 286.762C542.988 299.815 563.405 296.95 577.994 281.676C592.583 266.402 589.658 242.504 572.739 232.627C555.82 222.75 537.164 223.101 523.399 237.713C509.635 252.325 514.322 273.709 528.655 286.762Z" fill="#FFD900"/>
<path d="M666.327 260.917C680.659 273.97 701.077 271.105 715.666 255.831C730.255 240.557 727.33 216.659 710.411 206.782C693.492 196.905 674.836 197.256 661.071 211.868C647.307 226.48 651.994 247.865 666.327 260.917Z" fill="#0F0F0F"/>
<path d="M617.262 73.6138C618.6 74.3422 620.256 74.4055 621.238 73.1993C622.22 71.9931 622.033 70.223 620.819 69.2457C619.606 68.2684 617.916 68.7338 616.843 69.6602C615.77 70.5865 615.925 72.8853 617.262 73.6138Z" fill="#FFD900"/>
<path d="M604.513 27.2206C616.796 37.1121 618.691 55.0328 608.744 67.2478C598.796 79.4627 585.665 92.671 577.459 105.665C569.254 118.658 548.282 121.239 537.207 109.872C526.132 98.504 521.884 83.4661 532.977 69.8444C544.069 56.2228 553.361 44.8126 564.261 31.4276C575.161 18.0426 592.229 17.3292 604.513 27.2206Z" fill="#FFD900"/>
<path d="M-74.9524 100.775C-49.8699 123.617 -14.1388 118.604 11.392 91.8739C36.9227 65.1441 31.8032 23.3225 2.19523 6.03778C-27.4128 -11.247 -60.061 -10.6325 -84.1492 14.9386C-108.237 40.5097 -100.035 77.9327 -74.9524 100.775Z" fill="#181818"/>
<path d="M68.5066 -19.3537C82.0404 -11.9767 98.7917 -11.3212 108.714 -23.5058C118.636 -35.6904 116.722 -53.5866 104.439 -63.4781C92.1551 -73.3695 75.0719 -68.6809 64.2313 -59.3259C53.3906 -49.971 54.9729 -26.7306 68.5066 -19.3537Z" fill="#FFD900"/>
<path d="M118.506 63.559C135.344 77.1181 135.356 99.3698 124.31 118.422C113.264 137.474 94.5143 155.011 81.4344 171.073C68.3546 187.135 44.179 191.261 26.2621 176.834C8.34531 162.406 5.55311 136.616 20.4579 121.971C35.3626 107.326 47.3883 85.2425 63.3334 69.3199C79.2784 53.3973 101.667 49.9999 118.506 63.559Z" fill="#181818"/>
<path d="M1.46894 137.404C6.0911 141.126 14.5223 136.47 19.7074 131.423C24.8925 126.376 24.163 117.369 17.7391 113.139C11.3152 108.91 3.8812 109.456 -0.654533 115.026C-5.19026 120.596 -3.15323 133.682 1.46894 137.404Z" fill="#FFD900"/>
<path d="M71.7154 70.0422C75.5876 73.5685 81.1037 72.7946 85.0451 68.6681C88.9865 64.5416 88.1961 58.0853 83.6253 55.4169C79.0545 52.7485 74.0143 52.8434 70.2956 56.791C66.577 60.7386 67.8432 66.5159 71.7154 70.0422Z" fill="#F0C933"/>
<path d="M81.5548 78.3892C82.8263 79.5471 84.6376 79.293 85.9318 77.938C87.2259 76.583 86.9664 74.463 85.4656 73.5869C83.9647 72.7107 82.3097 72.7418 81.0887 74.0381C79.8676 75.3343 80.2834 77.2313 81.5548 78.3892Z" fill="#F0C933"/>
<path d="M-5.8334 38.5461C-1.96121 42.0724 3.55489 41.2985 7.49627 37.172C11.4377 33.0455 10.6473 26.5892 6.0765 23.9208C1.50568 21.2524 -3.53449 21.3473 -7.25318 25.2949C-10.9719 29.2425 -9.70558 35.0198 -5.8334 38.5461Z" fill="black"/>
<path d="M66.3595 100.564C67.631 101.722 69.4423 101.468 70.7364 100.113C72.0306 98.7578 71.7711 96.6379 70.2702 95.7617C68.7694 94.8855 67.1144 94.9166 65.8933 96.2129C64.6723 97.5091 65.0881 99.4061 66.3595 100.564Z" fill="#FFD900"/>
<path d="M88.901 13.5471C92.7732 17.0734 98.2893 16.2995 102.231 12.173C106.172 8.04646 105.382 1.59016 100.811 -1.07823C96.2401 -3.74661 91.1999 -3.65176 87.4812 0.295856C83.7625 4.24347 85.0288 10.0208 88.901 13.5471Z" fill="#FFD900"/>
<path d="M81.6652 11.7864C93.9488 21.6779 93.9562 37.9126 85.8958 51.8136C77.8355 65.7146 64.1555 78.5107 54.6117 90.2304C45.0679 101.95 27.43 104.962 14.3596 94.4374C1.28915 83.9123 -0.746095 65.0962 10.1289 54.4102C21.0039 43.7242 29.779 27.6116 41.4131 15.9935C53.0471 4.37532 69.3816 1.89498 81.6652 11.7864Z" fill="#0F0F0F"/>
<path d="M19.9784 8.70614C25.2088 13.4693 32.6596 12.4239 37.9834 6.85008C43.3072 1.27623 42.2397 -7.44462 36.0657 -11.0489C29.8916 -14.6532 23.0837 -14.5251 18.0607 -9.19288C13.0377 -3.86066 14.7481 3.94299 19.9784 8.70614Z" fill="#181818"/>
<path d="M-53.2809 183.364C-38.948 196.416 -18.5302 193.552 -3.94118 178.277C10.6478 163.003 7.7224 139.105 -9.19647 129.228C-26.1153 119.351 -44.7715 119.702 -58.5361 134.314C-72.3008 148.926 -67.6137 170.311 -53.2809 183.364Z" fill="#FFD900"/>
<path d="M84.391 157.519C98.7239 170.572 119.142 167.707 133.731 152.433C148.32 137.158 145.394 113.26 128.475 103.383C111.557 93.5065 92.9004 93.8576 79.1357 108.47C65.371 123.082 70.0581 144.466 84.391 157.519Z" fill="#0F0F0F"/>
<path d="M22.5773 -76.1778C34.8609 -66.2864 36.755 -48.3656 26.808 -36.1507C16.8609 -23.9357 3.72905 -10.7274 -4.47614 2.2661C-12.6813 15.2596 -33.6532 17.8407 -44.7283 6.47313C-55.8034 -4.8944 -60.0515 -19.9324 -48.9589 -33.554C-37.8663 -47.1757 -28.5747 -58.5858 -17.6748 -71.9708C-6.77492 -85.3558 10.2937 -86.0693 22.5773 -76.1778Z" fill="#FFD900"/>
<path d="M237.293 89.5439V92.3271H229.042V96.7217H236.878V99.6147H229.005V107H225.831V89.5439H237.293ZM242.359 100.542C242.359 103.22 243.397 104.559 245.472 104.559C247.547 104.559 248.585 103.22 248.585 100.542C248.585 97.9302 247.547 96.624 245.472 96.624C243.397 96.624 242.359 97.9302 242.359 100.542ZM239.125 100.591C239.125 96.2944 241.24 94.146 245.472 94.146C249.704 94.146 251.82 96.2944 251.82 100.591C251.82 104.88 249.704 107.024 245.472 107.024C241.257 107.024 239.141 104.88 239.125 100.591ZM254.261 107V94.1826H256.764L257.167 95.8184C258.29 94.7279 259.478 94.1826 260.731 94.1826V96.7949C259.527 96.7949 258.448 97.2954 257.496 98.2964V107H254.261ZM270.765 97.0879C270.236 96.8926 269.483 96.7949 268.507 96.7949C266.269 96.7949 265.15 98.0278 265.15 100.494C265.15 102.878 266.114 104.07 268.043 104.07C268.971 104.07 269.878 103.851 270.765 103.411V97.0879ZM274 106.023C274 109.767 271.75 111.639 267.25 111.639C265.671 111.639 264.271 111.435 263.05 111.028V108.465C264.295 108.872 265.703 109.075 267.274 109.075C269.601 109.075 270.765 108.099 270.765 106.146C269.805 106.552 268.771 106.756 267.665 106.756C263.856 106.756 261.952 104.677 261.952 100.518C261.952 96.2944 264.169 94.1826 268.604 94.1826C270.094 94.1826 271.892 94.3576 274 94.7075V106.023ZM279.688 100.542C279.688 103.22 280.726 104.559 282.801 104.559C284.876 104.559 285.914 103.22 285.914 100.542C285.914 97.9302 284.876 96.624 282.801 96.624C280.726 96.624 279.688 97.9302 279.688 100.542ZM276.454 100.591C276.454 96.2944 278.569 94.146 282.801 94.146C287.033 94.146 289.149 96.2944 289.149 100.591C289.149 104.88 287.033 107.024 282.801 107.024C278.586 107.024 276.47 104.88 276.454 100.591ZM291.407 92.1074H293.8L294.288 94.1826H297.511V96.7461H294.642V102.642C294.642 103.838 295.159 104.437 296.192 104.437H297.511V107H294.63C292.481 107 291.407 105.848 291.407 103.545V92.1074ZM308.448 103.655C309.254 104.095 310.121 104.314 311.048 104.314C312.977 104.314 313.941 102.959 313.941 100.25C313.941 97.9465 312.875 96.7949 310.743 96.7949C309.824 96.7949 309.059 96.8519 308.448 96.9658V103.655ZM305.213 94.7075C306.914 94.3576 308.713 94.1826 310.609 94.1826C314.963 94.1826 317.14 96.2131 317.14 100.274C317.14 104.758 315.113 107 311.061 107C310.198 107 309.327 106.797 308.448 106.39V111.639H305.213V94.7075ZM318.983 103.008C318.983 100.461 320.838 99.1875 324.549 99.1875C325.42 99.1875 326.291 99.2689 327.162 99.4316V98.4673C327.162 97.3198 326.336 96.7461 324.684 96.7461C323.284 96.7461 321.729 96.9495 320.021 97.3564V94.793C321.729 94.3861 323.284 94.1826 324.684 94.1826C328.492 94.1826 330.396 95.5905 330.396 98.4062V107H328.517L327.369 105.853C326.254 106.618 325.025 107 323.683 107C320.549 107 318.983 105.669 318.983 103.008ZM327.162 101.629C326.348 101.466 325.477 101.385 324.549 101.385C322.995 101.385 322.218 101.914 322.218 102.972C322.218 104.111 322.869 104.681 324.171 104.681C325.245 104.681 326.242 104.347 327.162 103.68V101.629ZM333.46 106.39V103.704C334.885 104.274 336.528 104.559 338.392 104.559C339.784 104.559 340.479 104.111 340.479 103.216C340.479 102.361 340.012 101.934 339.076 101.934H336.756C334.152 101.934 332.85 100.652 332.85 98.0889C332.85 95.4033 334.75 94.0605 338.551 94.0605C340.162 94.0605 341.68 94.3047 343.104 94.793V97.4785C341.68 96.9089 340.134 96.624 338.465 96.624C336.716 96.624 335.841 97.0716 335.841 97.9668C335.841 98.8213 336.349 99.2485 337.367 99.2485H339.442C342.29 99.2485 343.714 100.53 343.714 103.094C343.714 105.779 341.9 107.122 338.27 107.122C336.488 107.122 334.885 106.878 333.46 106.39ZM345.985 106.39V103.704C347.409 104.274 349.053 104.559 350.917 104.559C352.308 104.559 353.004 104.111 353.004 103.216C353.004 102.361 352.536 101.934 351.6 101.934H349.281C346.677 101.934 345.375 100.652 345.375 98.0889C345.375 95.4033 347.275 94.0605 351.075 94.0605C352.687 94.0605 354.204 94.3047 355.628 94.793V97.4785C354.204 96.9089 352.658 96.624 350.99 96.624C349.24 96.624 348.365 97.0716 348.365 97.9668C348.365 98.8213 348.874 99.2485 349.891 99.2485H351.966C354.815 99.2485 356.239 100.53 356.239 103.094C356.239 105.779 354.424 107.122 350.794 107.122C349.012 107.122 347.409 106.878 345.985 106.39ZM357.411 94.1826H360.67L362.33 103.106L365.296 94.1826H368.067L371.266 103.106L372.706 94.1826H376.075L372.73 107H369.691L366.676 97.9058L363.624 107H360.536L357.411 94.1826ZM380.665 100.542C380.665 103.22 381.703 104.559 383.778 104.559C385.853 104.559 386.891 103.22 386.891 100.542C386.891 97.9302 385.853 96.624 383.778 96.624C381.703 96.624 380.665 97.9302 380.665 100.542ZM377.43 100.591C377.43 96.2944 379.546 94.146 383.778 94.146C388.01 94.146 390.125 96.2944 390.125 100.591C390.125 104.88 388.01 107.024 383.778 107.024C379.562 107.024 377.446 104.88 377.43 100.591ZM392.567 107V94.1826H395.069L395.472 95.8184C396.595 94.7279 397.783 94.1826 399.037 94.1826V96.7949C397.832 96.7949 396.754 97.2954 395.802 98.2964V107H392.567ZM408.985 97.5273C408.318 97.0879 407.48 96.8682 406.471 96.8682C404.461 96.8682 403.456 97.9953 403.456 100.25C403.456 102.927 404.501 104.266 406.593 104.266C407.439 104.266 408.237 104.148 408.985 103.912V97.5273ZM412.22 106.231C410.259 106.744 408.342 107 406.471 107C402.328 107 400.257 104.778 400.257 100.335C400.257 96.2334 402.284 94.1826 406.336 94.1826C407.199 94.1826 408.082 94.3861 408.985 94.793V89.5439H412.22V106.231ZM225.526 136V123.183H228.028L228.431 125.062C229.66 123.809 231.06 123.183 232.63 123.183C235.666 123.183 237.184 124.761 237.184 127.919V136H233.949V127.919C233.949 126.503 233.245 125.795 231.837 125.795C230.787 125.795 229.762 126.214 228.761 127.052V136H225.526ZM242.872 129.542C242.872 132.22 243.91 133.559 245.985 133.559C248.06 133.559 249.098 132.22 249.098 129.542C249.098 126.93 248.06 125.624 245.985 125.624C243.91 125.624 242.872 126.93 242.872 129.542ZM239.637 129.591C239.637 125.294 241.753 123.146 245.985 123.146C250.217 123.146 252.333 125.294 252.333 129.591C252.333 133.88 250.217 136.024 245.985 136.024C241.769 136.024 239.653 133.88 239.637 129.591ZM254.591 121.107H256.983L257.472 123.183H260.694V125.746H257.826V131.642C257.826 132.838 258.342 133.437 259.376 133.437H260.694V136H257.813C255.665 136 254.591 134.848 254.591 132.545V121.107ZM266.139 118.544V121.107H262.904V118.544H266.139ZM266.139 123.183V136H262.904V123.183H266.139ZM280.323 123.183V136H277.088V125.624H272.438V136H269.203V122.56C269.203 119.297 271.123 117.665 274.964 117.665C276.34 117.665 277.719 117.95 279.103 118.52V121.083C277.849 120.513 276.547 120.229 275.196 120.229C273.357 120.229 272.438 120.973 272.438 122.462V123.183H280.323ZM292.848 135.634C291.79 135.878 290.691 136 289.552 136C284.994 136 282.716 133.782 282.716 129.347C282.716 125.237 284.994 123.183 289.552 123.183C290.691 123.183 291.79 123.305 292.848 123.549V126.112C291.79 125.868 290.772 125.746 289.796 125.746C287.232 125.746 285.951 126.946 285.951 129.347C285.951 132.073 287.232 133.437 289.796 133.437C290.772 133.437 291.79 133.314 292.848 133.07V135.634ZM294.374 132.008C294.374 129.461 296.229 128.188 299.94 128.188C300.811 128.188 301.681 128.269 302.552 128.432V127.467C302.552 126.32 301.726 125.746 300.074 125.746C298.674 125.746 297.12 125.95 295.411 126.356V123.793C297.12 123.386 298.674 123.183 300.074 123.183C303.883 123.183 305.787 124.59 305.787 127.406V136H303.907L302.76 134.853C301.645 135.618 300.416 136 299.073 136C295.94 136 294.374 134.669 294.374 132.008ZM302.552 130.629C301.738 130.466 300.868 130.385 299.94 130.385C298.386 130.385 297.608 130.914 297.608 131.972C297.608 133.111 298.259 133.681 299.562 133.681C300.636 133.681 301.633 133.347 302.552 132.68V130.629ZM308.668 121.107H311.061L311.549 123.183H314.771V125.746H311.903V131.642C311.903 132.838 312.42 133.437 313.453 133.437H314.771V136H311.891C309.742 136 308.668 134.848 308.668 132.545V121.107ZM320.216 118.544V121.107H316.981V118.544H320.216ZM320.216 123.183V136H316.981V123.183H320.216ZM325.904 129.542C325.904 132.22 326.942 133.559 329.017 133.559C331.092 133.559 332.13 132.22 332.13 129.542C332.13 126.93 331.092 125.624 329.017 125.624C326.942 125.624 325.904 126.93 325.904 129.542ZM322.669 129.591C322.669 125.294 324.785 123.146 329.017 123.146C333.249 123.146 335.365 125.294 335.365 129.591C335.365 133.88 333.249 136.024 329.017 136.024C324.802 136.024 322.686 133.88 322.669 129.591ZM337.806 136V123.183H340.309L340.711 125.062C341.94 123.809 343.34 123.183 344.911 123.183C347.946 123.183 349.464 124.761 349.464 127.919V136H346.229V127.919C346.229 126.503 345.525 125.795 344.117 125.795C343.067 125.795 342.042 126.214 341.041 127.052V136H337.806Z" fill="white"/>
</g>
<defs>
<clipPath id="clip0_4601_5512">
<rect width="642" height="246" rx="10" fill="white"/>
</clipPath>
</defs>
</svg>
