<svg width="15" height="13" viewBox="0 0 15 13" fill="none" xmlns="http://www.w3.org/2000/svg">
<path d="M9.69799 9.75113C9.69799 10.4533 10.7512 11.8576 11.1023 11.8576C12.1556 11.8576 13.0915 10.6871 13.5599 9.75113C14.0282 8.58063 13.911 5.65543 12.5066 1.67629C11.4836 0.963595 10.4002 0.735393 9.34691 0.623047L8.66441 1.9733C7.72276 1.81075 6.76021 1.81075 5.81856 1.9733L5.13395 0.623047C4.08071 0.735393 2.99728 0.963595 1.97423 1.67629C0.569908 5.65543 0.452648 8.58063 0.920989 9.75113C1.38933 10.6871 2.32531 11.8576 3.37855 11.8576C3.72963 11.8576 4.78287 10.4533 4.78287 9.75113M3.72967 9.40005C6.18723 10.1022 8.29371 10.1022 10.7513 9.40005M4.43183 6.24033C4.43183 6.42655 4.5058 6.60515 4.63748 6.73683C4.76917 6.86851 4.94776 6.94249 5.13399 6.94249C5.32021 6.94249 5.49881 6.86851 5.63049 6.73683C5.76217 6.60515 5.83615 6.42655 5.83615 6.24033C5.83615 6.0541 5.76217 5.87551 5.63049 5.74383C5.49881 5.61215 5.32021 5.53817 5.13399 5.53817C4.94776 5.53817 4.76917 5.61215 4.63748 5.74383C4.5058 5.87551 4.43183 6.0541 4.43183 6.24033ZM8.64479 6.24033C8.64479 6.42655 8.71877 6.60515 8.85045 6.73683C8.98213 6.86851 9.16073 6.94249 9.34695 6.94249C9.53317 6.94249 9.71177 6.86851 9.84345 6.73683C9.97513 6.60515 10.0491 6.42655 10.0491 6.24033C10.0491 6.0541 9.97513 5.87551 9.84345 5.74383C9.71177 5.61215 9.53317 5.53817 9.34695 5.53817C9.16073 5.53817 8.98213 5.61215 8.85045 5.74383C8.71877 5.87551 8.64479 6.0541 8.64479 6.24033Z" stroke="black" stroke-width="1.2" stroke-linecap="round" stroke-linejoin="round"/>
</svg>
