<svg width="13" height="13" viewBox="0 0 13 13" fill="none" xmlns="http://www.w3.org/2000/svg">
<path d="M9.91958 3.59916V3.60618M1.14258 3.95024C1.14258 3.20534 1.43849 2.49096 1.96521 1.96423C2.49193 1.43751 3.20632 1.1416 3.95122 1.1416H9.5685C10.3134 1.1416 11.0278 1.43751 11.5545 1.96423C12.0812 2.49096 12.3771 3.20534 12.3771 3.95024V9.56753C12.3771 10.3124 12.0812 11.0268 11.5545 11.5535C11.0278 12.0803 10.3134 12.3762 9.5685 12.3762H3.95122C3.20632 12.3762 2.49193 12.0803 1.96521 11.5535C1.43849 11.0268 1.14258 10.3124 1.14258 9.56753V3.95024ZM4.65338 6.75888C4.65338 7.31756 4.87531 7.85335 5.27035 8.24839C5.6654 8.64343 6.20119 8.86536 6.75986 8.86536C7.31853 8.86536 7.85433 8.64343 8.24937 8.24839C8.64441 7.85335 8.86634 7.31756 8.86634 6.75888C8.86634 6.20021 8.64441 5.66442 8.24937 5.26938C7.85433 4.87433 7.31853 4.6524 6.75986 4.6524C6.20119 4.6524 5.6654 4.87433 5.27035 5.26938C4.87531 5.66442 4.65338 6.20021 4.65338 6.75888Z" stroke="black" stroke-width="1.2" stroke-linecap="round" stroke-linejoin="round"/>
</svg>
