<svg width="16" height="14" viewBox="0 0 16 14" fill="none" xmlns="http://www.w3.org/2000/svg">
<path d="M15.262 1.63039C14.5598 1.97445 13.8717 2.11418 13.1555 2.32553C12.3684 1.4373 11.2014 1.38815 10.08 1.80804C8.95867 2.22793 8.22421 3.25449 8.24036 4.43201V5.13417C5.96185 5.19245 3.9326 4.15466 2.62307 2.32553C2.62307 2.32553 -0.313365 7.54469 5.43171 10.0493C4.11727 10.9249 2.80634 11.5154 1.21875 11.4536C3.5415 12.7196 6.07279 13.155 8.26423 12.5188C10.778 11.7885 12.8437 9.90465 13.6365 7.08267C13.8729 6.2244 13.9904 5.3377 13.9854 4.44746C13.9854 4.27262 15.0457 2.50107 15.262 1.62969V1.63039Z" stroke="black" stroke-width="1.2" stroke-linecap="round" stroke-linejoin="round"/>
</svg>
